<svg xmlns="http://www.w3.org/2000/svg" viewBox="0 0 244.79 257.57"><defs><style>.cls-1{fill:#88ccf2;}.cls-2{fill:#919191;}.cls-3{fill:#909293;}.cls-4{fill:#aaa;}.cls-5{fill:#c4c4c4;}.cls-6{fill:#9fdcf7;}.cls-7{fill:#d3d3d3;}.cls-8{fill:#62acdd;}.cls-9{fill:#5290b2;}.cls-10{fill:#4ba2c9;}.cls-11{fill:#9fddff;}</style></defs><title>amenities</title><g id="Layer_2" data-name="Layer 2"><g id="Layer_1-2" data-name="Layer 1"><path class="cls-1" d="M118.72,45.34h8.7A40.54,40.54,0,0,1,168,85.87V242.69a14.49,14.49,0,0,1-14.49,14.49H92.67a14.49,14.49,0,0,1-14.49-14.49V85.87a40.54,40.54,0,0,1,40.54-40.54Z"/><path class="cls-2" d="M107.19,3.15a62.28,62.28,0,0,0,32,0v-1h-32Z"/><ellipse class="cls-3" cx="123.19" cy="5.19" rx="2.42" ry="2.09"/><ellipse class="cls-4" cx="123.19" cy="2.03" rx="16.22" ry="2.03"/><path class="cls-5" d="M107,1.62V48.18s11.58,5.69,32.44,0V1.62Z"/><ellipse class="cls-6" cx="144.4" cy="80.51" rx="9.67" ry="22.75" transform="translate(-16.53 42.62) rotate(-15.89)"/><rect class="cls-6" x="143.77" y="118.15" width="9" height="103" rx="4.5" ry="4.5"/><rect class="cls-7" x="131.11" y="7.28" width="3.17" height="25.87" rx="1.58" ry="1.58"/><rect class="cls-7" x="131.11" y="35.9" width="3.17" height="6.69" rx="1.58" ry="1.58"/><path class="cls-8" d="M204,146.62s-19.8,5-18.58,61c0,0,3.06,49.92,12.25,49.92h17.39V129.86h-11Z"/><path class="cls-8" d="M226.16,146.62s19.8,5,18.58,61c0,0-3.07,49.92-12.25,49.92h-17.4V129.86h11Z"/><path class="cls-9" d="M204.13,129.86s7.19-4.23,21.92,0l.11,16.76a30.13,30.13,0,0,1-22.13,0Z"/><ellipse class="cls-10" cx="215.09" cy="129.86" rx="10.88" ry="2.26"/><ellipse class="cls-11" cx="227.35" cy="172.77" rx="7.71" ry="14.85" transform="translate(-24.32 37.87) rotate(-9.04)"/><path class="cls-8" d="M18.63,146.62s-19.8,5-18.58,61c0,0,3.07,49.92,12.26,49.92H29.7V129.86h-11Z"/><path class="cls-8" d="M40.76,146.62s19.8,5,18.58,61c0,0-3.06,49.92-12.25,49.92H29.7V129.86h11Z"/><path class="cls-9" d="M18.74,129.86s7.19-4.23,21.92,0l.1,16.76a30.13,30.13,0,0,1-22.13,0Z"/><ellipse class="cls-10" cx="29.7" cy="129.86" rx="10.88" ry="2.26"/><ellipse class="cls-11" cx="41.95" cy="172.77" rx="7.71" ry="14.85" transform="translate(-26.62 8.74) rotate(-9.04)"/></g></g></svg>