<svg xmlns="http://www.w3.org/2000/svg" viewBox="0 0 163.13 138.89"><defs><style>.cls-1{fill:none;stroke:#ef5d60;stroke-miterlimit:10;stroke-width:1.6px;}</style></defs><title>Asset 9</title><g id="Layer_2" data-name="Layer 2"><g id="Layer_1-2" data-name="Layer 1"><circle class="cls-1" cx="99.58" cy="4.3" r="3.5"/><path class="cls-1" d="M151.8,65.44c.13-1.53.19-3.08.19-4.64a53.5,53.5,0,0,0-107,0c0,1.62.08,3.23.22,4.81H151.77Z"/><rect class="cls-1" x="36.33" y="69.3" width="126" height="7.79" rx="3.9" ry="3.9"/><path class="cls-1" d="M26.58,88.55l5,29.75a244.34,244.34,0,0,1,40.12-5.38C88.24,112.16,107,97.36,115,90.44a4.64,4.64,0,0,0,0-6.94h0a4.64,4.64,0,0,0-5.54-.5L90.42,94.78a13.61,13.61,0,0,1-7.13,2H60a2.94,2.94,0,0,1-2.93-2.94V93a2.93,2.93,0,0,1,2.38-2.88L78,86.62a2.83,2.83,0,0,0,2.21-3.53h0A2.84,2.84,0,0,0,77.61,81c-5.88-.32-22.94-.9-31.2,2.72Z"/><polygon class="cls-1" points="0.83 92.3 26.58 88.55 32.83 128.05 2.58 137.8 0.83 92.3"/><circle class="cls-1" cx="10.08" cy="128.05" r="2.88"/><circle class="cls-1" cx="20.39" cy="124.68" r="2.88"/></g></g></svg>