<svg xmlns="http://www.w3.org/2000/svg" viewBox="0 0 73.4 98.59"><defs><style>.cls-1{fill:none;stroke:#ef5d60;stroke-miterlimit:10;}</style></defs><title>Asset 10</title><g id="Layer_2" data-name="Layer 2"><g id="Layer_1-2" data-name="Layer 1"><line class="cls-1" x1="72.9" y1="19.32" x2="72.9" y2="82.34"/><line class="cls-1" x1="29.73" y1="47.25" x2="29.73" y2="19.32"/><path class="cls-1" d="M55.5,15.87c9.92.39,17.4,2.14,17.4,4.24,0,2.39-9.67,4.32-21.59,4.32S29.73,22.5,29.73,20.11c0-2.14,7.8-3.92,18-4.26"/><path class="cls-1" d="M43.67,78.93c2.37-.18,4.95-.28,7.64-.28,11.92,0,21.59,1.94,21.59,4.32s-9.67,4.32-21.59,4.32c-2.69,0-5.27-.1-7.64-.28"/><path class="cls-1" d="M55.28,15.79a7.59,7.59,0,0,1-4,4.32,7.84,7.84,0,0,1-3.83-8.52C48.48,5.4,52.06,5.17,52.4,0a3.91,3.91,0,0,0,.49.8A18.76,18.76,0,0,1,54,3.36a28.39,28.39,0,0,1,1.68,9.78,8.31,8.31,0,0,1-.44,2.65"/><path class="cls-1" d="M51.31,20.11s-3.7-1.46-3.07-5.35a8.14,8.14,0,0,1,1.16-3.09,24.45,24.45,0,0,0,1.39-2.09,5.1,5.1,0,0,0,.35-.9c0-.17.08-.35.11-.52s0-.42.08-.61c.1.06.2.29.27.41s.18.32.27.48c.18.37.34.76.49,1.16a17.85,17.85,0,0,1,1.06,6.14C53.4,18,52.74,19.41,51.31,20.11Z"/><line class="cls-1" x1="0.5" y1="95.01" x2="0.5" y2="50.02"/><line class="cls-1" x1="43.67" y1="50.02" x2="43.67" y2="95.01"/><path class="cls-1" d="M26.05,47.11c10,.26,17.62,1.52,17.62,3,0,1.7-9.67,3.08-21.59,3.08S.5,51.84.5,50.14c0-1.53,7.79-2.8,18-3"/><ellipse class="cls-1" cx="22.08" cy="95.01" rx="21.58" ry="3.08"/><path class="cls-1" d="M22.08,50.14s-4.83-1.67-3.83-6.08,4.58-4.59,4.92-8.25c0,.09.43.49.49.57a11.69,11.69,0,0,1,1.15,1.8,15.16,15.16,0,0,1,1.68,7C26.46,47.78,24.36,49.34,22.08,50.14Z"/><path class="cls-1" d="M22.08,50.14s-3.7-1-3.07-3.82a4.88,4.88,0,0,1,1.16-2.2,19.74,19.74,0,0,0,1.39-1.5,3.06,3.06,0,0,0,.35-.64c0-.12.08-.25.11-.38s0-.29.08-.43a1.12,1.12,0,0,1,.27.3l.27.34a8.45,8.45,0,0,1,.49.82A9.56,9.56,0,0,1,24.19,47,3,3,0,0,1,22.08,50.14Z"/></g></g></svg>