<svg xmlns="http://www.w3.org/2000/svg" viewBox="0 0 625.49 413.4"><defs><style>.cls-1{fill:#ea5757;}.cls-2{fill:#d84848;}.cls-3,.cls-4{fill:#fff;}.cls-4{font-size:41.9px;font-family:Quantify-Bold, Quantify;font-weight:700;}</style></defs><title>chat icon</title><g id="Layer_2" data-name="Layer 2"><g id="Layer_1-2" data-name="Layer 1"><polygon class="cls-1" points="65.64 241.93 65.64 337.88 183.18 241.93 65.64 241.93"/><rect class="cls-1" width="467.74" height="281.9" rx="40" ry="40"/><rect class="cls-2" x="157.75" y="70.46" width="467.74" height="281.9" rx="40" ry="40"/><polygon class="cls-2" points="327.18 317.46 327.18 413.4 219.66 317.46 327.18 317.46"/><path class="cls-3" d="M395.75,264.67c0,3.69-.16,7.39.06,11.07.16,2.83.63,3,3.37,3,33.18-.41,61.36-25.51,65.29-58.46,2.27-19.06-2.67-36.21-15-51.07-1.47-1.78-1.38-3,0-4.44,3.28-3.38,6.53-6.8,10-10,2.27-2.11,2.68-1.94,4.64.4q24.93,29.64,20.41,68.1A84.82,84.82,0,0,1,414,296.5a114.87,114.87,0,0,1-14.72,1.2c-2.28.07-3.16,1.05-3.41,3a38.48,38.48,0,0,0-.3,4.55c0,3.41.09,6.82-.07,10.23A13.4,13.4,0,0,1,394.3,319a13.16,13.16,0,0,1-3.32-1.63c-4.66-4.26-9.2-8.64-13.78-13-5.06-4.79-10.13-9.56-15.16-14.36-3-2.86-3-5.76,0-8.61q14.52-13.75,29.08-27.5c.27-.25.5-.6.81-.71.78-.29,1.74-.83,2.35-.58a2.69,2.69,0,0,1,1.13,2.07c.12,3.33.05,6.67.05,10Z"/><path class="cls-3" d="M392.59,159.43c0-3.69.17-7.4,0-11.08-.17-2.82-.63-3-3.38-3-33.17.4-61.36,25.51-65.28,58.46-2.28,19.06,2.66,36.21,14.94,51.07,1.48,1.78,1.39,3,0,4.44-3.28,3.38-6.53,6.8-10,10-2.26,2.11-2.67,1.94-4.64-.4-16.61-19.76-23.47-42.51-20.41-68.1a84.82,84.82,0,0,1,70.6-73.23,114.86,114.86,0,0,1,14.71-1.2c2.29-.07,3.17-1.05,3.42-3a40.87,40.87,0,0,0,.29-4.55c0-3.41-.09-6.83.07-10.23a13.79,13.79,0,0,1,1.15-3.48,13,13,0,0,1,3.32,1.63c4.66,4.26,9.2,8.64,13.79,13,5.05,4.79,10.12,9.56,15.16,14.36,3,2.86,3,5.76,0,8.61l-29.09,27.5c-.26.25-.49.6-.81.71-.77.29-1.74.83-2.34.58a2.7,2.7,0,0,1-1.14-2.07c-.11-3.33-.05-6.67-.05-10Z"/><text class="cls-4" transform="translate(339.65 226.19)">24 x 7</text></g></g></svg>