<svg xmlns="http://www.w3.org/2000/svg" viewBox="0 0 63.01 119.29"><defs><style>.cls-1{fill:none;stroke:#ef5d60;stroke-miterlimit:10;stroke-width:2px;}</style></defs><title>dumbell</title><g id="Layer_2" data-name="Layer 2"><g id="Layer_1-2" data-name="Layer 1"><rect class="cls-1" x="27.34" y="1.02" width="8.67" height="60.66" rx="3.59" ry="3.59" transform="translate(63.18 -0.18) rotate(90.26)"/><rect class="cls-1" x="27.17" y="-2.15" width="8.67" height="49.67" rx="3.59" ry="3.59" transform="translate(54.33 -8.71) rotate(90.26)"/><rect class="cls-1" x="27.1" y="-4.82" width="8.67" height="37.69" rx="3.59" ry="3.59" transform="translate(45.59 -17.35) rotate(90.26)"/><path class="cls-1" d="M30.67-3.18h5.08a0,0,0,0,1,0,0V13.89a0,0,0,0,1,0,0H30.67a3.59,3.59,0,0,1-3.59-3.59V.41a3.59,3.59,0,0,1,3.59-3.59Z" transform="translate(36.91 -26.03) rotate(90.26)"/><polygon class="cls-1" points="39.01 35.72 24.5 35.66 24.44 49.66 24.35 49.66 24.19 83.57 38.7 83.64 38.76 69.63 38.85 69.63 39.01 35.72"/><rect class="cls-1" x="27" y="57.61" width="8.67" height="60.66" rx="3.59" ry="3.59" transform="translate(-56.75 118.87) rotate(-89.74)"/><rect class="cls-1" x="26.75" y="71.77" width="8.67" height="49.67" rx="3.59" ry="3.59" transform="translate(-65.66 127.25) rotate(-89.74)"/><rect class="cls-1" x="26.6" y="86.43" width="8.67" height="37.69" rx="3.59" ry="3.59" transform="translate(-74.48 135.72) rotate(-89.74)"/><path class="cls-1" d="M30.09,105.4h5.08a0,0,0,0,1,0,0v17.06a0,0,0,0,1,0,0H30.09a3.59,3.59,0,0,1-3.59-3.59V109A3.59,3.59,0,0,1,30.09,105.4Z" transform="translate(-83.24 144.25) rotate(-89.74)"/></g></g></svg>