<svg xmlns="http://www.w3.org/2000/svg" viewBox="0 0 820.17 703.69"><defs><style>.cls-1{fill:#b2b1b1;}.cls-2{fill:#dbdcdd;}.cls-3{fill:#eaeaea;}.cls-4{fill:#dbd9d9;}.cls-5{fill:#fff;}.cls-6{fill:#6c1d22;}.cls-7{fill:#b42328;}.cls-8{fill:#d11f2b;}.cls-9{fill:#a8a5a5;}.cls-10{fill:#cec8c9;}.cls-11{fill:#e2d8d9;}.cls-12{fill:#ba652b;}.cls-13{fill:#d37736;}.cls-14{fill:#cb0622;}.cls-15{fill:#d82345;}.cls-16{fill:#b76935;}.cls-17{fill:#cc6e3a;}.cls-18{fill:#7a4725;}.cls-19{fill:#a55520;opacity:0.5;}.cls-20{fill:#a85924;}.cls-21{fill:#f9fbfa;}.cls-22{fill:#f0ec7e;}.cls-23{fill:#efcb03;}.cls-24{fill:#fff69a;}.cls-25{fill:#ccaa05;}.cls-26{fill:#7ebd38;}.cls-27{fill:#15b845;}.cls-28{fill:#a7d735;}.cls-29{fill:#319243;}.cls-30{fill:#9cd845;}.cls-31{fill:#77bf41;}.cls-32{fill:#f3f576;}.cls-33{fill:#3c8e4c;}.cls-34{fill:#a7d336;}.cls-35{fill:#3f8f48;}.cls-36{fill:#a9d42f;}</style></defs><title>food</title><g id="Layer_2" data-name="Layer 2"><g id="Layer_1-2" data-name="Layer 1"><path class="cls-1" d="M722,246.92l-49.73,30.73-49.73-30.73-18.84,5,4.36,4.28c33.72,33.12,54.08,35.45,54.64,82.72l.5,179h18.14l.5-179c.56-47.27,20.92-49.6,54.64-82.72l4.36-4.28Z"/><ellipse class="cls-2" cx="671.92" cy="15.17" rx="88.36" ry="15.17"/><path class="cls-3" d="M583.59,14.77s-104.31,234.7,90.48,263.44l.53-250.13S610.2,31.27,583.59,14.77Z"/><ellipse class="cls-4" cx="673.87" cy="539.98" rx="89.69" ry="36.62"/><ellipse class="cls-5" cx="673.87" cy="539.98" rx="78.86" ry="30.25"/><path class="cls-6" d="M557.27,114.53s-32.22,140.26,116.8,163.68l1.24-149S582.1,133.27,557.27,114.53Z"/><path class="cls-7" d="M572.74,119.74c1.63,1.42-.75,21.1-.59,24.31a175.34,175.34,0,0,0,3.29,26.42,177.36,177.36,0,0,0,18.22,49.9c8.23,15,19.13,28.82,32.79,39.25,14.58,11.13,29.81,13.92,46.47,19.16-3.59-4.76-11.93-8-17-11.48a215.17,215.17,0,0,1-18.57-14.22,175.11,175.11,0,0,1-31.16-34.52c-19.28-28.51-23.29-57.81-23.4-91.31a6.78,6.78,0,0,0-.7-3.65C580.24,120.68,575.35,122,572.74,119.74Z"/><path class="cls-3" d="M760.28,15.17s107.67,234.3-87.12,263l-.53-250.13S733.67,31.67,760.28,15.17Z"/><path class="cls-6" d="M791.15,114.53s31,140.26-118,163.68l-1.24-149S766.32,133.27,791.15,114.53Z"/><path class="cls-8" d="M791.15,114.53c0,8.82-51.86,16-115.84,16s-118-7.15-118-16,54.06-16,118-16S791.15,105.71,791.15,114.53Z"/><path class="cls-9" d="M681.29,515.36v-12H663.15V516.9c0,4.67-1.89,8.83-4.78,11.09a1.78,1.78,0,0,0-.84,1.35c0,2.34,7.16,4.24,16,4.24s16-1.9,16-4.24c0-.78-.81-1.52-2.22-2.15C683.69,525.57,681.29,520.72,681.29,515.36Z"/><polygon class="cls-10" points="820.17 620.79 820.17 581.8 771.3 581.8 807.51 618.01 820.17 620.79"/><polygon class="cls-10" points="0 587.97 0 618.46 29.3 638.46 56.63 617.79 0 587.97"/><ellipse class="cls-10" cx="410.09" cy="615.11" rx="410.09" ry="88.58"/><ellipse class="cls-11" cx="410.09" cy="585.04" rx="410.09" ry="88.58"/><path class="cls-12" d="M254.94,403.33c24.92-24.14,52.52-45.22,80.13-57.45,29.57-13.08,62.78-15.39,95.1-14.48,54.21,1.53,111.29,13.11,151.15,49.9C601.54,400,616,423.92,630.16,447.51,642.07,467.35,665,493.4,668.85,516c3.64,21.41-10.75,50.79-24.45,66.44-13.74,18-32.25,32.42-52.59,42.28-38.4,18.61-82.09,22.77-124.74,24.07-113.29,3.45-232.75-13.52-323.37-81.59-5.14-3.87-10.4-8.19-12.61-14.23-2.46-6.7-.66-14.13,1.15-21C137.3,512.65,147,489.32,167,488.35c5.19-.25,10.68,1.17,15.42-.94,3.85-1.71,6.37-5.38,8.77-8.84A523.94,523.94,0,0,1,254.94,403.33Z"/><path class="cls-13" d="M122.55,349.21c5-6.4,15.68-7.07,21.28-13.39,2.85-3.2,4.19-7.67,7.55-10.33,7.2-5.71,18.22.89,22.05,9.24s3.81,18.11,7.79,26.39c5.09,10.58,15.8,17.09,25.95,23,19.58,11.4,39.48,22.94,61.43,28.54C305.33,422,344,414,381.89,414.52c33.57.49,75.88,11,92.86,43.27,14.38,27.34,8.56,73-18.58,90.62a556.81,556.81,0,0,1-82.72,44.19c-17.05,7.33-35.84,13.91-53.86,9.45-17.07-4.23-30.31-17.71-40.5-32a186,186,0,0,1-27.95-59.3c-3.43-12.78-5.59-26.17-12.14-37.67-15.73-27.64-51.83-36.87-71.93-61.51-4.79,10.22-15.22,18.66-26.46,17.59s-20.37-14.73-14.53-24.39c-9.43-.22-22-3.53-21.71-13,.32-10.58,15.62-11.69,25.92-9.28l31.5,7.34c-6.06-8.42-17.4-10.55-26.85-14.83s-18.51-15-13.51-24.11A11.79,11.79,0,0,1,122.55,349.21Z"/><path class="cls-14" d="M165.25,408.57s-19.13-21.82,17.52-29.63c0,0,13.77-2.41,17.42,0s-5.41-21.63-2.4-25.24c0,0,10.81-4.2,12,0,0,0-6,18-6,20.43s18.62-19.83,24.63-9.61c0,0,10.21,3.54-14.42,14.68,0,0,.7,2.94-3.85,6.15s-28.45,22.1-28.45,40.13C181.71,425.48,164.05,421.79,165.25,408.57Z"/><path class="cls-15" d="M188.33,388.66s-29,12.89-21.89,26.61C166.44,415.27,168.5,398.16,188.33,388.66Z"/><path class="cls-15" d="M182.77,378.94c-18.64,4-22.85,11.56-22.49,18.07h0s6.56-15.12,24.13-18.33C183.39,378.83,182.77,378.94,182.77,378.94Z"/><path class="cls-15" d="M189,378.13h0Z"/><path class="cls-16" d="M121.83,363.16s-4.37-8.08.72-14a26.54,26.54,0,0,1,6.46-4.88l8.2-3.78S119.4,352.31,121.83,363.16Z"/><path class="cls-17" d="M293.37,397s-3.66,1.22,4.31-3.41a441.91,441.91,0,0,1,40.49-21.11c51.79-23.25,110.47-32.93,179.48,5.64,0,0-180.92-14.84-220,15.47"/><path class="cls-12" d="M302.89,470s22.64,26.24,54.44,24.87l30.43,1.64S302.8,472,302.89,470Z"/><path class="cls-18" d="M527.37,348.63C496.89,337,463,332.33,430.17,331.4c-37.78-1.06-76.36,3.55-110,21.88a221.25,221.25,0,0,0-27.38,17.9c7-5.29,16.35-8.95,24.32-12.53,8.49-3.82,21.85-8.6,30.7-11.49,17.7-5.77,30.95-6.1,49.48-7.94,11.53-1.15,26.83-.78,38.41-.32,13.07.52,22.3.52,35.26,1.52S497,343,509.92,345.09A161.94,161.94,0,0,1,527.37,348.63Z"/><path class="cls-12" d="M535.28,351.84a3.23,3.23,0,0,0,1.94.87C536.58,352.42,535.93,352.12,535.28,351.84Z"/><path class="cls-17" d="M462.69,387.84s-1.8-.14-5-.29c-14.24-.69-56.06-1.54-87.92,9.61,0,0-58.9,6.75-71.35,4.8s132.21,8,162.46-14.26"/><path class="cls-19" d="M630.16,447.51C616,423.92,601.54,400,581.32,381.3q-3.78-3.48-7.76-6.67c.19.24,104.49,133.61,19.07,211.66s-457.8,27.92-462.14-46.73h0c-.8,4.56-1,9.16.6,13.45,2.21,6,7.47,10.36,12.61,14.23,90.62,68.07,210.08,85,323.37,81.59,42.65-1.3,86.34-5.46,124.74-24.07,20.34-9.86,38.85-24.26,52.59-42.28,13.7-15.65,28.09-45,24.45-66.44C665,493.4,642.07,467.35,630.16,447.51Z"/><path class="cls-12" d="M295.83,589c-.63-.63-1.38-1.31-2.26-2C294.31,587.64,295.07,588.32,295.83,589Z"/><path class="cls-20" d="M287.83,581c-20.45-25.29-35.77-89.1-35.77-89.1-13.76-42-35.38-42.5-35.38-42.5h0c8.89,6.59,16.84,14,22.32,23.61,6.55,11.5,8.71,24.89,12.14,37.67A186,186,0,0,0,279.09,570,128.76,128.76,0,0,0,287.83,581Z"/><path class="cls-20" d="M342.11,416c-24.83,1.49-49.58,2.79-73.51-3.31C247.87,407.37,229,396.79,210.44,386,213.05,391.82,235.51,433,342.11,416Z"/><path class="cls-20" d="M472.56,530.64c12.4-21.55,13-52.36,2.19-72.85-14.09-26.77-45.6-38.55-75.09-42.08C399.67,415.72,498.48,436.13,472.56,530.64Z"/><path class="cls-15" d="M224.16,363.49s-18,10.62-18.33,11.14,2,1,17.17-8.48C223,366.15,227.92,364.4,224.16,363.49Z"/><path class="cls-15" d="M199.67,355.27s2.09-1.7,3.66-1.31-1.83,17.26-1.83,17.26Z"/><path class="cls-21" d="M588.13,91s20.15-71.2,23.64-71.78c0,0-12.08,69.12-8.38,68.55Z"/><path class="cls-22" d="M199.21,574.77S262.58,659.94,313,606.14a24.54,24.54,0,0,0-1.59,2.29,68.88,68.88,0,0,1-4.72,5.65,59.71,59.71,0,0,1-18,13.49,43.29,43.29,0,0,1-27.94,3.24c-13.32-2.95-24.52-11.24-34.08-20.65-9.94-9.79-18.32-21.11-25.84-32.83C200.29,576.49,199.8,575.57,199.21,574.77Z"/><path class="cls-23" d="M199.44,575.42c4.9.93,9.91,2.9,14.74,4.29q15.15,4.38,30.41,8.33c21.07,5.43,43.31,11.75,65.2,12.23a35.14,35.14,0,0,0,8.38-.59c-.46.1-4.1,9.12-4.71,10-15.59,22.78-48.1,16.56-68.94,5.68C226.76,606.09,209.86,593,199.44,575.42Z"/><path class="cls-24" d="M252.52,593.35s-6.15,17.77-4.32,19.93C248.2,613.28,255.17,602,252.52,593.35Z"/><path class="cls-24" d="M243.72,591.19s-8.14,13.62-7.48,15.61A37.45,37.45,0,0,0,243.72,591.19Z"/><path class="cls-24" d="M236.21,589.37s-8.93,6.64-9.43,8.63C226.78,598,233.51,595.34,236.21,589.37Z"/><path class="cls-24" d="M223.13,591.19s5.27-5.31,8.36-4.32C231.49,586.87,225.78,591.19,223.13,591.19Z"/><path class="cls-24" d="M261.48,598s-.16,20.42,2,21.59S261.48,598,261.48,598Z"/><path class="cls-24" d="M270.12,598s.31,22.58,2.64,23.58-2-22.58-2-22.58Z"/><path class="cls-24" d="M277.76,601.32s7.63,20.76,8.63,21.09S277.76,601.32,277.76,601.32Z"/><path class="cls-24" d="M288.38,603.62s8.14,11,10,11.48S291.37,603.59,288.38,603.62Z"/><path class="cls-22" d="M199.44,575.42a136.77,136.77,0,0,0,17.68,27.2,79.19,79.19,0,0,0,8.6,8.87c2.95,2.57,6.51,5.8,10.33,6.93-1.86-3-4.87-5.78-7.2-8.51-1.41-1.66-2.77-3.38-4.24-5C224.61,604.92,200.46,578.54,199.44,575.42Z"/><path class="cls-25" d="M199.33,575.31s-22.2,60.44,73.43,56.41c-8.5.36-17.49-2.76-25-6.37-12.58-6-23.33-15.33-32.22-26A150.2,150.2,0,0,1,199.33,575.31Z"/><path class="cls-26" d="M653.69,574.5s-10.16-49,17.55-56.35C671.24,518.15,673.09,569.89,653.69,574.5Z"/><path class="cls-27" d="M654.05,571.94s33.25-10.16,45.26,15.7C699.31,587.64,663.28,595,654.05,571.94Z"/><path class="cls-27" d="M624.71,540.89s34,7.37,31.84,35.8C656.55,576.69,621.5,565.55,624.71,540.89Z"/><path class="cls-26" d="M654.05,574.64s14.64-33.23,40.07-31.65C694.12,543,682.69,569,654.05,574.64Z"/><path class="cls-26" d="M326.87,639.47s-10.17-49,17.55-56.35C344.42,583.12,346.26,634.85,326.87,639.47Z"/><path class="cls-27" d="M327.22,636.9s33.25-10.16,45.26,15.71C372.48,652.61,336.46,660,327.22,636.9Z"/><path class="cls-27" d="M297.88,605.85s34,7.37,31.84,35.81C329.72,641.66,294.67,630.51,297.88,605.85Z"/><path class="cls-26" d="M327.22,639.6s14.64-33.22,40.07-31.64C367.29,608,355.86,634,327.22,639.6Z"/><path class="cls-28" d="M560.21,509.1s-7.27,93.19,17.28,113.65C577.49,622.75,586.13,530.92,560.21,509.1Z"/><path class="cls-29" d="M577.84,635.38s-10.18-71,15.92-91C593.76,544.43,603.3,617.65,577.84,635.38Z"/><path class="cls-30" d="M589.24,560.77s-.07.28-.19.81c-3.89,16.06-7.86,32.19-10.15,48.57-.49,3.49-.9,7-1.22,10.51-.14,1.54-.29,3.38.73,4.67a333.35,333.35,0,0,0,10.34-48.71c.61-4.88,2-10.81.42-15.57"/><path class="cls-30" d="M594.91,590.77s16-9.54,19-13.11c0,0-7.42,53.78-35.44,57.28,0,0,13.86-24.73,16.43-43.68S594.91,590.77,594.91,590.77Z"/><path class="cls-31" d="M580.28,628.9S539.38,532.77,492,517.74C492,517.74,566.08,633.62,580.28,628.9Z"/><path class="cls-32" d="M515.82,542.94s30.75,37.21,30.84,37.57C546.66,580.51,540,552.38,515.82,542.94Z"/><path class="cls-33" d="M492,517.74s26.34,92.06,93.73,119.84"/><path class="cls-34" d="M513.42,594.32s30.58-6.32,51,30.62C564.39,624.94,515.7,614.06,513.42,594.32Z"/><path class="cls-35" d="M585.91,628.6s-68.91-30.87-125.34,4a221.17,221.17,0,0,1,26-1.23,184.77,184.77,0,0,1,24.66,1.47,77,77,0,0,1,15.12,3.6c4.78,1.7,9.41,4,14.48,4.72,5.46.8,11,.53,16.48.28a68.23,68.23,0,0,0,15.45-2.13c5.3-1.48,11.13-4.23,13.16-9.74"/><path class="cls-36" d="M489.68,623.49s.5,0,1.41.12c5.71.54,27.33,3.22,37.86,13.52,0,0,12.18,5.15,14.22,4s-3.67-17.66-28.33-17.62"/><path class="cls-12" d="M252.26,463.42S357.64,591.3,419.73,546.33c0,0-67.91,65.14-101.56,38.71C318.17,585,279.93,580.11,252.26,463.42Z"/></g></g></svg>