<svg id="Layer_1" data-name="Layer 1" xmlns="http://www.w3.org/2000/svg" viewBox="0 0 58.5 58.5"><defs><style>.cls-1{fill:#9393a4;}</style></defs><title>g-circle</title><path class="cls-1" d="M29.24 0a29.25 29.25 0 1 0 29.25 29.25A29.25 29.25 0 0 0 29.24 0zm13.15 29.91l-2.33.62a.84.84 0 0 0-.48.29 1.06 1.06 0 0 0-.2.56 32.75 32.75 0 0 0-.11 3.75c0 1.2.06 2.83.14 4.89-.48.08-1.52.3-3.11.67q-3.14.7-4 .8a27.55 27.55 0 0 1-3.4.2q-5.81 0-8.93-3.11a11.43 11.43 0 0 1-3.12-8.48 12.72 12.72 0 0 1 3.66-9.44 13.22 13.22 0 0 1 9.73-3.63 22.2 22.2 0 0 1 2.91.18q.31 0 5.65 1v1.49c0 1.49.07 3.07.21 5.07h-1.24A11.7 11.7 0 0 0 36.34 21a4.69 4.69 0 0 0-2.17-1.48 11.8 11.8 0 0 0-4.29-.77 8.61 8.61 0 0 0-7.69 3.9 12.1 12.1 0 0 0-1.8 6.77q0 5.14 2.85 7.79a10.14 10.14 0 0 0 7.19 2.65 16 16 0 0 0 5.76-1.17q.07-1.8.07-5.29a12.91 12.91 0 0 0-.1-2.22.89.89 0 0 0-.4-.52 6.63 6.63 0 0 0-2-.62l-.4-.15v-.92l5.2.12c1.24 0 2.8 0 3.8-.12v.92z"/></svg>