<svg xmlns="http://www.w3.org/2000/svg" viewBox="0 0 580.7 539.66"><defs><style>.cls-1{fill:#ffd348;}.cls-2{fill:#4181ce;}.cls-3{fill:#3173b5;}.cls-4{fill:#fce147;stroke:#e5c923;stroke-miterlimit:10;stroke-width:19px;}.cls-5{font-size:62.85px;fill:#b79d1c;font-family:Roboto-BlackItalic, Roboto BlackItalic;font-style:italic;}</style></defs><title>Asset 14</title><g id="Layer_2" data-name="Layer 2"><g id="Layer_1-2" data-name="Layer 1"><path class="cls-1" d="M188.83,160.66A209.3,209.3,0,0,1,184,135.49c-1.15-8.49-1.86-17-2.17-25.66-.15-4.31-.16-8.63-.1-13s.33-8.68.67-13,.85-8.73,1.55-13.1,1.52-8.76,2.65-13.12a102.9,102.9,0,0,1,10-25.82,69.73,69.73,0,0,1,8.45-12,60.29,60.29,0,0,1,11.5-10.15,54.21,54.21,0,0,1,14.12-6.79A62.71,62.71,0,0,1,245.88.11a72.8,72.8,0,0,1,14.78.7A88.4,88.4,0,0,1,274.82,4a58.8,58.8,0,0,1,14.24,6.54,38.1,38.1,0,0,1,12.39,12.78,36.22,36.22,0,0,1,4.71,17.43,51.34,51.34,0,0,1-2.31,15.76,99.13,99.13,0,0,1-12.26,25.3,188.88,188.88,0,0,1-16,21.1,332.86,332.86,0,0,1-37,36.06c-6.55,5.49-13.24,10.8-20.11,15.86s-13.86,9.93-21.16,14.37l16.82-19.09c5.55-6.37,11.07-12.72,16.46-19.14,10.79-12.82,21.3-25.79,30.69-39.19,2.36-3.34,4.62-6.72,6.76-10.13s4.25-6.81,6.12-10.28c3.74-6.9,7-13.95,8.62-20.64a33.21,33.21,0,0,0,1.05-9.22,13.49,13.49,0,0,0-2-6.68,15.7,15.7,0,0,0-5.21-5.08,37.45,37.45,0,0,0-8.77-3.83c-1.62-.57-3.4-1-5.14-1.43-.88-.22-1.79-.36-2.68-.55s-1.79-.36-2.68-.46a55.05,55.05,0,0,0-10.45-.67,40.35,40.35,0,0,0-9.76,1.38,37.09,37.09,0,0,0-8.79,3.78c-5.56,3.28-10.36,8.34-14.45,14.38a81.19,81.19,0,0,0-5.52,9.76,102.45,102.45,0,0,0-4.51,10.75c-1.31,3.72-2.56,7.51-3.64,11.39s-2,7.82-2.92,11.81c-1.74,8-3.13,16.13-4.23,24.36C190.86,126.86,189.6,143.64,188.83,160.66Z"/><path class="cls-1" d="M182.33,162.16c-4.63-12.09-9.14-24-14-35.59a300,300,0,0,0-16-33.36c-1.49-2.61-3-5.15-4.67-7.57s-3.27-4.79-5-7A49.24,49.24,0,0,0,131.36,68a22,22,0,0,0-5.67-2.65,15.36,15.36,0,0,0-5.47-.58,20.42,20.42,0,0,0-5.83,1.33c-.51.23-1,.44-1.54.65s-1,.52-1.57.76-1.09.58-1.65.89-1.14.64-1.66,1c-4.36,2.65-7.76,5.77-9.66,9a14.78,14.78,0,0,0-2,5.09,18.72,18.72,0,0,0-.17,6,42.09,42.09,0,0,0,4.88,14.15,78.16,78.16,0,0,0,4.38,7.21c1.59,2.4,3.33,4.75,5.18,7.06a192.63,192.63,0,0,0,25.57,26,226.93,226.93,0,0,0,30.64,22.23,97.39,97.39,0,0,1-18.92-4.91,142.94,142.94,0,0,1-18-7.94c-2.92-1.53-5.78-3.18-8.63-4.88s-5.59-3.57-8.33-5.47-5.4-3.94-8-6.07-5.18-4.35-7.62-6.74-4.85-4.86-7.14-7.5a90.11,90.11,0,0,1-6.44-8.49,64.93,64.93,0,0,1-5.45-9.73A51,51,0,0,1,74.63,93a39.47,39.47,0,0,1-.37-13,36.62,36.62,0,0,1,4.28-12.82A43.24,43.24,0,0,1,86.46,57a57.24,57.24,0,0,1,9.45-7.2c.81-.52,1.63-1,2.45-1.43s1.61-.92,2.55-1.35,1.79-.9,2.74-1.29,1.91-.78,2.88-1.15a42,42,0,0,1,12.8-2.48,36.82,36.82,0,0,1,13.33,2.05,42.11,42.11,0,0,1,11.25,6,54.81,54.81,0,0,1,8.57,8A71.57,71.57,0,0,1,159,66.94a102.26,102.26,0,0,1,5.22,9.1c1.55,3.08,2.93,6.19,4.22,9.31a188.27,188.27,0,0,1,10.62,38.08c1.11,6.42,2,12.85,2.53,19.31A166.39,166.39,0,0,1,182.33,162.16Z"/><rect class="cls-2" x="20" y="227.16" width="340" height="303"/><rect class="cls-2" y="159.16" width="380" height="68"/><rect class="cls-3" x="20" y="227.16" width="340" height="8.7"/><rect class="cls-1" x="171.25" y="159.16" width="27.33" height="371"/><path class="cls-4" d="M298.31,416.43l59.36,106a15,15,0,0,0,18.45,6.69l113.54-43.33a25.65,25.65,0,0,0,15-15.22l65.54-180.69a17.27,17.27,0,0,0-10.35-22.13L472,236l-87.79-31.84a17.27,17.27,0,0,0-22.13,10.35L296.58,395.16A25.65,25.65,0,0,0,298.31,416.43Z"/><text class="cls-5" transform="matrix(0.94, 0.33, -0.33, 0.94, 386.53, 319.88)">50%<tspan x="0" y="75.42">OFF</tspan></text></g></g></svg>