<svg xmlns="http://www.w3.org/2000/svg" viewBox="0 0 81.09 155.66"><defs><style>.cls-1{fill:#e55a6e;}.cls-2{fill:#598dd8;}.cls-3{fill:#4e85c6;}</style></defs><title>gym</title><g id="Layer_2" data-name="Layer 2"><g id="Layer_1-2" data-name="Layer 1"><rect class="cls-1" x="18.21" y="58.91" width="45" height="19.25" transform="translate(109.43 28.13) rotate(90.26)"/><rect class="cls-2" x="34.97" y="0.04" width="11.5" height="80.5" rx="3.59" ry="3.59" transform="translate(81.19 -0.25) rotate(90.26)"/><rect class="cls-2" x="34.73" y="-4.17" width="11.5" height="65.92" rx="3.59" ry="3.59" transform="translate(69.45 -11.57) rotate(90.26)"/><rect class="cls-2" x="34.64" y="-7.72" width="11.5" height="50.01" rx="3.59" ry="3.59" transform="translate(57.86 -23.02) rotate(90.26)"/><path class="cls-1" d="M38.2-5.54h7.91a0,0,0,0,1,0,0V17.11a0,0,0,0,1,0,0H38.2a3.59,3.59,0,0,1-3.59-3.59V-2A3.59,3.59,0,0,1,38.2-5.54Z" transform="translate(46.33 -34.55) rotate(90.26)"/><path class="cls-3" d="M38.48,3.45h.42a4.27,4.27,0,0,1,4.27,4.27v72a4.27,4.27,0,0,1-4.27,4.27h-.42a0,0,0,0,1,0,0V3.45A0,0,0,0,1,38.48,3.45Z" transform="translate(84.71 3.07) rotate(90.26)"/><path class="cls-3" d="M38.13-.77h.42A4.27,4.27,0,0,1,42.81,3.5V60.89a4.27,4.27,0,0,1-4.27,4.27h-.42a0,0,0,0,1,0,0V-.77A0,0,0,0,1,38.13-.77Z" transform="translate(72.85 -8.13) rotate(90.26)"/><path class="cls-3" d="M38-4.31h.42A4.27,4.27,0,0,1,42.72,0V41.43a4.27,4.27,0,0,1-4.27,4.27H38a0,0,0,0,1,0,0v-50a0,0,0,0,1,0,0Z" transform="translate(61.25 -19.59) rotate(90.26)"/><rect class="cls-1" x="18.01" y="77.5" width="45" height="19.25" transform="translate(-46.8 127.25) rotate(-89.74)"/><rect class="cls-2" x="34.51" y="75.13" width="11.5" height="80.5" rx="3.59" ry="3.59" transform="translate(-75.3 155.11) rotate(-89.74)"/><rect class="cls-2" x="34.17" y="93.92" width="11.5" height="65.92" rx="3.59" ry="3.59" transform="translate(-87.13 166.23) rotate(-89.74)"/><rect class="cls-2" x="33.97" y="113.37" width="11.5" height="50.01" rx="3.59" ry="3.59" transform="translate(-98.83 177.47) rotate(-89.74)"/><path class="cls-1" d="M37.43,138.55h7.91a0,0,0,0,1,0,0V161.2a0,0,0,0,1,0,0H37.43a3.59,3.59,0,0,1-3.59-3.59V142.14A3.59,3.59,0,0,1,37.43,138.55Z" transform="translate(-110.46 188.79) rotate(-89.74)"/><path class="cls-3" d="M38.06,71.72h.42A4.27,4.27,0,0,1,42.74,76v72a4.27,4.27,0,0,1-4.27,4.27h-.42a0,0,0,0,1,0,0V71.72A0,0,0,0,1,38.06,71.72Z" transform="translate(-71.75 151.86) rotate(-89.74)"/><path class="cls-3" d="M37.6,90.51H38a4.27,4.27,0,0,1,4.27,4.27v57.39A4.27,4.27,0,0,1,38,156.43H37.6a0,0,0,0,1,0,0V90.51a0,0,0,0,1,0,0Z" transform="translate(-83.71 162.85) rotate(-89.74)"/><path class="cls-3" d="M37.4,110h.42a4.27,4.27,0,0,1,4.27,4.27v41.48A4.27,4.27,0,0,1,37.82,160H37.4a0,0,0,0,1,0,0V110A0,0,0,0,1,37.4,110Z" transform="translate(-95.41 174.1) rotate(-89.74)"/></g></g></svg>