<svg xmlns="http://www.w3.org/2000/svg" viewBox="0 0 87.33 127.88"><defs><style>.cls-1,.cls-2{fill:none;stroke:#fff;stroke-miterlimit:10;}.cls-1{stroke-width:4px;}.cls-2{stroke-width:2px;}</style></defs><title>Asset 23</title><g id="Layer_2" data-name="Layer 2"><g id="Layer_1-2" data-name="Layer 1"><path class="cls-1" d="M70,68.61A26.4,26.4,0,1,1,69.74,63"/><path class="cls-1" d="M2,23.67V6.3A4.3,4.3,0,0,1,6.3,2H81a4.3,4.3,0,0,1,4.3,4.3V23.67Z"/><path class="cls-1" d="M2,104.21v17.36a4.29,4.29,0,0,0,4.27,4.3H80.4a4.29,4.29,0,0,0,4.27-4.3V104.21Z"/><rect class="cls-1" x="2" y="31.17" width="82.67" height="72.17"/><rect class="cls-2" x="9.83" y="9.5" width="19.33" height="8.17"/><circle class="cls-2" cx="39.02" cy="14.27" r="2.27"/><circle class="cls-2" cx="47.69" cy="14.27" r="2.27"/><circle class="cls-2" cx="55.97" cy="14.27" r="2.27"/><circle class="cls-2" cx="71.47" cy="14.68" r="4.02"/><rect class="cls-2" x="64" y="63.77" width="11.38" height="4.58"/></g></g></svg>