<svg xmlns="http://www.w3.org/2000/svg" viewBox="0 0 68.71 42"><defs><style>.cls-1{fill:#eef1ff;}.cls-2{fill:#db4f56;}.cls-3,.cls-4{fill:#fff;}.cls-4{stroke:#3a3a3a;stroke-miterlimit:10;stroke-width:0.75px;}.cls-5{fill:#eaeaea;}</style></defs><title>Asset 1</title><g id="Layer_2" data-name="Layer 2"><g id="Layer_1-2" data-name="Layer 1"><rect class="cls-1" y="9.37" width="31.19" height="6.5" rx="3.25" ry="3.25"/><path class="cls-1" d="M17.46,22.42a3.22,3.22,0,0,0,2.94-3.3h0a3.25,3.25,0,0,0-3.19-3.25l9.5-2.25,3.51,1.31L30,25,18,22.37"/><rect class="cls-1" x="14.78" y="22.37" width="16.41" height="6.5" rx="3.25" ry="3.25"/><rect class="cls-2" x="27.08" width="23.67" height="42" rx="3.33" ry="3.33"/><rect class="cls-3" x="29.58" y="5.5" width="18.67" height="29.67"/><circle class="cls-3" cx="39.08" cy="38.08" r="1.5"/><line class="cls-4" x1="54.46" y1="21" x2="47.83" y2="21"/><path class="cls-4" d="M47.83,21H42.06a1.48,1.48,0,0,1-1.48-1.48V3A1.48,1.48,0,0,1,42.06,1.5H66.85A1.48,1.48,0,0,1,68.33,3V19.52A1.48,1.48,0,0,1,66.85,21H54.46"/><circle class="cls-5" cx="46" cy="11.5" r="1.83"/><circle class="cls-5" cx="51.72" cy="11.5" r="1.83"/><circle class="cls-5" cx="57.49" cy="11.5" r="1.83"/><circle class="cls-5" cx="63.33" cy="11.5" r="1.83"/><path class="cls-4" d="M47.83,21"/><polyline class="cls-4" points="47.83 21 47.83 26.81 54.46 21"/></g></g></svg>