<svg xmlns="http://www.w3.org/2000/svg" viewBox="0 0 62.51 118.79"><defs><style>.cls-1{fill:none;stroke:#ef5d60;stroke-miterlimit:10;stroke-width:1.5px;}</style></defs><title>Asset 1</title><g id="Layer_2" data-name="Layer 2"><g id="Layer_1-2" data-name="Layer 1"><rect class="cls-1" x="27.09" y="0.77" width="8.67" height="60.66" rx="3.59" ry="3.59" transform="translate(62.67 -0.18) rotate(90.26)"/><rect class="cls-1" x="26.92" y="-2.4" width="8.67" height="49.67" rx="3.59" ry="3.59" transform="translate(53.83 -8.71) rotate(90.26)"/><rect class="cls-1" x="26.85" y="-5.07" width="8.67" height="37.69" rx="3.59" ry="3.59" transform="translate(45.09 -17.35) rotate(90.26)"/><path class="cls-1" d="M30.42-3.43h5.08a0,0,0,0,1,0,0V13.64a0,0,0,0,1,0,0H30.42a3.59,3.59,0,0,1-3.59-3.59V.16a3.59,3.59,0,0,1,3.59-3.59Z" transform="translate(36.41 -26.03) rotate(90.26)"/><polygon class="cls-1" points="38.76 35.47 24.25 35.41 24.19 49.41 24.1 49.41 23.94 83.32 38.45 83.39 38.51 69.38 38.6 69.38 38.76 35.47"/><rect class="cls-1" x="26.75" y="57.36" width="8.67" height="60.66" rx="3.59" ry="3.59" transform="translate(-56.75 118.38) rotate(-89.74)"/><rect class="cls-1" x="26.5" y="71.52" width="8.67" height="49.67" rx="3.59" ry="3.59" transform="translate(-65.66 126.75) rotate(-89.74)"/><rect class="cls-1" x="26.35" y="86.18" width="8.67" height="37.69" rx="3.59" ry="3.59" transform="translate(-74.48 135.22) rotate(-89.74)"/><path class="cls-1" d="M29.84,105.15h5.08a0,0,0,0,1,0,0v17.06a0,0,0,0,1,0,0H29.84a3.59,3.59,0,0,1-3.59-3.59v-9.89A3.59,3.59,0,0,1,29.84,105.15Z" transform="translate(-83.24 143.75) rotate(-89.74)"/></g></g></svg>