<svg xmlns="http://www.w3.org/2000/svg" viewBox="0 0 240.06 255.01"><defs><style>.cls-1,.cls-2{fill:none;stroke:#ef5d60;stroke-miterlimit:10;}.cls-1{stroke-width:3px;}.cls-2{stroke-width:2px;}</style></defs><title>pizza</title><g id="Layer_2" data-name="Layer 2"><g id="Layer_1-2" data-name="Layer 1"><path class="cls-1" d="M32,87.57A110.5,110.5,0,1,0,90.12,38.79l37.77,104.05Z"/><path class="cls-1" d="M99.08,54.4a92.94,92.94,0,1,1-55,48.19l3.8-5.89,80.06,46.14L96.16,55.44Z"/><polygon class="cls-1" points="63.84 12.44 97.84 104.44 10.51 54.44 63.84 12.44"/><path class="cls-1" d="M10.51,54.44,2.54,49a2.39,2.39,0,0,1-.12-3.86L57.65,2a2.39,2.39,0,0,1,3.79,1.28l2.41,9.15Z"/><circle class="cls-1" cx="67.94" cy="146.01" r="7"/><circle class="cls-2" cx="49.67" cy="64.6" r="5.54"/><circle class="cls-2" cx="52.12" cy="37.02" r="5.54"/><circle class="cls-2" cx="74.64" cy="71.76" r="5.54"/><circle class="cls-1" cx="146.69" cy="88.76" r="8.75"/><circle class="cls-1" cx="87.92" cy="191.02" r="8.75"/><circle class="cls-1" cx="146.69" cy="199.78" r="8.75"/><circle class="cls-1" cx="183.02" cy="142.84" r="8.75"/></g></g></svg>