<svg xmlns="http://www.w3.org/2000/svg" viewBox="0 0 600.31 244.32"><defs><style>.cls-1{fill:none;stroke:#fff;stroke-miterlimit:10;stroke-width:4px;}</style></defs><title>Asset 9</title><g id="Layer_2" data-name="Layer 2"><g id="Layer_1-2" data-name="Layer 1"><ellipse class="cls-1" cx="330.64" cy="112.62" rx="226.6" ry="101.5"/><ellipse class="cls-1" cx="330.06" cy="122.16" rx="268.25" ry="120.16"/><polygon class="cls-1" points="100.98 47.84 4.31 47.84 22.65 26.18 119.31 26.18 100.98 47.84"/><path class="cls-1" d="M4.31,47.84,6,137.55s28.44-13.4,40.1-17V47.84Z"/><path class="cls-1" d="M171.7,98.11h-35S151.45,118.37,171.7,98.11Z"/><path class="cls-1" d="M206.69,98.11h-35S186.44,118.37,206.69,98.11Z"/><path class="cls-1" d="M206.69,98.11s14.74,20.25,35,0Z"/><path class="cls-1" d="M295.68,43.34h-35S275.43,63.6,295.68,43.34Z"/><path class="cls-1" d="M330.68,43.34h-35S310.42,63.6,330.68,43.34Z"/><path class="cls-1" d="M330.68,43.34s14.74,20.25,35,0Z"/><path class="cls-1" d="M395.91,137.55h-35S375.65,157.81,395.91,137.55Z"/><path class="cls-1" d="M430.9,137.55h-35S410.65,157.81,430.9,137.55Z"/><path class="cls-1" d="M430.9,137.55s14.74,20.25,35,0Z"/></g></g></svg>