<svg xmlns="http://www.w3.org/2000/svg" viewBox="0 0 247.59 262.9"><defs><style>.cls-1{fill:#00a1f1;}.cls-2{fill:#f65314;}.cls-3{fill:none;stroke:#f65314;stroke-miterlimit:10;stroke-width:13px;}</style></defs><title>publicity</title><g id="Layer_2" data-name="Layer 2"><g id="Layer_1-2" data-name="Layer 1"><path class="cls-1" d="M190.06,24l-3.12,4.17s14.63-1.65,16.93,4.6H190.06l-3.12,3.94h16.93s2.47,8.15-15.12,7.82l-.16,4,17.09,20.16h7.4l-17.59-20.9s13.15-.49,15-10.85h5.34L219,32.48l-8.17.17s-2-4.28-2.55-4.44,7.8-.08,7.8-.08L219,24Z"/><rect class="cls-1" y="211.6" width="55.33" height="51.3"/><rect class="cls-1" x="89.91" y="155.12" width="54.76" height="107.78"/><rect class="cls-1" x="176.95" y="102.09" width="54.76" height="160.81"/><rect class="cls-2" x="3.75" y="136.72" width="142.34" height="14.41" transform="translate(-75.12 82.15) rotate(-40.12)"/><rect class="cls-2" x="89.1" y="90.5" width="47.26" height="19.02" rx="9.51" ry="9.51" transform="translate(-3.66 4.29) rotate(-2.15)"/><rect class="cls-2" x="100.83" y="104.41" width="47.26" height="19.02" rx="9.51" ry="9.51" transform="translate(261.59 15.63) rotate(101.9)"/><circle class="cls-3" cx="203.1" cy="44.49" r="37.99"/></g></g></svg>