<svg xmlns="http://www.w3.org/2000/svg" viewBox="0 0 161.5 137"><defs><style>.cls-1{fill:#efefef;}.cls-2{fill:#e5e5e5;}.cls-3{fill:#fed5aa;}.cls-4{fill:#f14b57;}.cls-5{fill:#fff;}</style></defs><title>roomservice</title><g id="Layer_2" data-name="Layer 2"><g id="Layer_1-2" data-name="Layer 1"><circle class="cls-1" cx="98.75" cy="3.5" r="3.5"/><path class="cls-2" d="M151,64.64q.2-2.29.2-4.64a53.5,53.5,0,0,0-107,0q0,2.43.21,4.81H150.95Z"/><rect class="cls-2" x="35.5" y="68.5" width="126" height="7.79" rx="3.9" ry="3.9"/><path class="cls-3" d="M25.75,87.75l5,29.75a244.68,244.68,0,0,1,40.13-5.37c16.54-.76,35.34-15.57,43.27-22.49a4.63,4.63,0,0,0,.06-6.93h0a4.63,4.63,0,0,0-5.54-.5L89.59,94a13.57,13.57,0,0,1-7.13,2H59.19a2.94,2.94,0,0,1-2.94-2.94v-.82a2.94,2.94,0,0,1,2.39-2.89l18.52-3.53a2.84,2.84,0,0,0,2.21-3.53h0a2.83,2.83,0,0,0-2.58-2.09c-5.88-.33-22.94-.91-31.2,2.71Z"/><polygon class="cls-4" points="0 91.5 25.75 87.75 32 127.25 1.75 137 0 91.5"/><path class="cls-1" d="M97.67,6.5A53.5,53.5,0,0,0,44.17,60q0,2.43.21,4.81H60.25S53.33,20.75,97.67,6.5Z"/><circle class="cls-5" cx="9.25" cy="127.25" r="2.88"/><circle class="cls-5" cx="19.56" cy="123.88" r="2.88"/></g></g></svg>