<svg xmlns="http://www.w3.org/2000/svg" viewBox="0 0 400.19 259.09"><defs><style>.cls-1,.cls-2{fill:none;stroke:#ef5d60;stroke-miterlimit:10;}.cls-1{stroke-width:3px;}.cls-2{stroke-linecap:round;stroke-width:5px;}</style></defs><title>room service</title><g id="Layer_2" data-name="Layer 2"><g id="Layer_1-2" data-name="Layer 1"><path class="cls-1" d="M65,234.1c-7.92-4.37-14.93-11.75-14.9-17.22.08-15.74,38.08-28.32,84.89-28.09s84.69,13.18,84.61,28.92c0,6.07-6,12.6-15.69,17.18"/><ellipse class="cls-1" cx="134.95" cy="203.33" rx="36.5" ry="133.45" transform="translate(-69.04 337.28) rotate(-89.72)"/><line class="cls-1" x1="203.01" y1="222.51" x2="203.01" y2="222.51"/><path class="cls-1" d="M72.21,235.26a46.07,46.07,0,0,0,39.11,22.1l46.73.23a46.06,46.06,0,0,0,39.33-21.71"/><path class="cls-1" d="M155.73,167.36a88.28,88.28,0,1,1,161.32-49.6q0,3-.2,6"/><path class="cls-1" d="M290.86,180.51a88.29,88.29,0,0,1-24,16.9"/><path class="cls-1" d="M123.38,166.91A116.27,116.27,0,1,1,345,117.76c0,1.77,0,3.54-.12,5.29"/><path class="cls-1" d="M290.86,216.06a115.71,115.71,0,0,1-62.09,18c-4,0-8-.21-11.89-.6"/><path class="cls-2" d="M166.2,113.48s-.09-48.41,57.34-57.67"/><ellipse class="cls-1" cx="334.61" cy="135.69" rx="43.75" ry="13"/><path class="cls-1" d="M378.36,135.69l2,109.18a11.49,11.49,0,0,1-11.49,11.48H302.35a11.48,11.48,0,0,1-11.49-11.48V137"/><path class="cls-1" d="M378.92,166.19h1.44a18.33,18.33,0,0,1,18.33,18.33v2.33a18.34,18.34,0,0,1-18.33,18.34h0"/><path class="cls-1" d="M378.92,174h.86a11,11,0,0,1,11,11v1.4a11,11,0,0,1-11,11h0"/></g></g></svg>