<svg xmlns="http://www.w3.org/2000/svg" viewBox="0 0 85.33 125.88"><defs><style>.cls-1{fill:none;stroke:#ef5d60;stroke-miterlimit:10;stroke-width:2px;}</style></defs><title>room laundry</title><g id="Layer_2" data-name="Layer 2"><g id="Layer_1-2" data-name="Layer 1"><path class="cls-1" d="M69.05,67.61A26.4,26.4,0,1,1,68.74,62"/><path class="cls-1" d="M1,22.67V5.3A4.31,4.31,0,0,1,5.3,1H80a4.3,4.3,0,0,1,4.3,4.3V22.67Z"/><path class="cls-1" d="M1,103.21v17.36a4.29,4.29,0,0,0,4.27,4.31H79.4a4.29,4.29,0,0,0,4.27-4.31V103.21Z"/><rect class="cls-1" x="1" y="30.17" width="82.67" height="72.17"/><rect class="cls-1" x="8.83" y="8.5" width="19.33" height="8.17"/><circle class="cls-1" cx="38.02" cy="13.27" r="2.27"/><circle class="cls-1" cx="46.69" cy="13.27" r="2.27"/><circle class="cls-1" cx="54.97" cy="13.27" r="2.27"/><circle class="cls-1" cx="70.47" cy="13.68" r="4.02"/><rect class="cls-1" x="63" y="62.77" width="11.38" height="4.58"/></g></g></svg>