<svg xmlns="http://www.w3.org/2000/svg" viewBox="0 0 36 56.39"><defs><style>.cls-1{fill:#dfdfdf;}.cls-2{fill:none;stroke:#c1c1c1;stroke-linecap:round;stroke-miterlimit:10;}.cls-3{fill:#c1c1c1;}</style></defs><title>Asset 10</title><g id="Layer_2" data-name="Layer 2"><g id="Layer_1-2" data-name="Layer 1"><circle class="cls-1" cx="18" cy="18" r="18"/><path class="cls-2" d="M5.29,14.81S7,11.23,9.66,11" transform="translate(-0.79)"/><path class="cls-2" d="M30.56,13.78S28.89,10.2,26.19,10" transform="translate(-0.79)"/><line class="cls-2" x1="15.75" y1="40.33" x2="15.67" y2="44.99"/><line class="cls-2" x1="11.54" y1="40.26" x2="9.44" y2="43.64"/><line class="cls-2" x1="22.55" y1="42.15" x2="20.84" y2="39.91"/><circle class="cls-3" cx="30.63" cy="41.08" r="0.52" transform="translate(-11.75 71.03) rotate(-89.05)"/><circle class="cls-3" cx="30.24" cy="50.68" r="1.54" transform="translate(-21.73 80.08) rotate(-89.05)"/><circle class="cls-3" cx="23.61" cy="49.93" r="1.65" transform="translate(-27.5 72.7) rotate(-89.05)"/><circle class="cls-3" cx="13.72" cy="54.75" r="1.64" transform="translate(-42.04 67.56) rotate(-89.05)"/><circle class="cls-3" cx="3.96" cy="47.66" r="1.46" transform="translate(-44.56 50.82) rotate(-89.05)"/><circle class="cls-3" cx="4.3" cy="39.46" r="0.67" transform="matrix(0.02, -1, 1, 0.02, -36.01, 43.1)"/><path class="cls-2" d="M10.07,15.79a3.5,3.5,0,0,0,5,0" transform="translate(-0.79)"/><path class="cls-2" d="M22.7,15.79a3.5,3.5,0,0,0,5,0" transform="translate(-0.79)"/><path class="cls-3" d="M0,33.77" transform="translate(-0.79)"/><path class="cls-3" d="M12.51,25.77a7.35,7.35,0,0,1,12.56-.11" transform="translate(-0.79)"/></g></g></svg>