<svg xmlns="http://www.w3.org/2000/svg" viewBox="0 0 182.39 125.26"><defs><style>.cls-1{fill:#7591e0;}.cls-2{fill:#8093f1;}.cls-3{fill:#eaad53;}.cls-4{fill:#ffcf7b;}.cls-5{fill:#6c85dd;}.cls-6{fill:#575757;}.cls-7{fill:#6d6d6d;}.cls-8{fill:#e55a6e;}.cls-9{fill:#598dd8;}.cls-10{fill:#4e85c6;}</style></defs><title>services</title><g id="Layer_2" data-name="Layer 2"><g id="Layer_1-2" data-name="Layer 1"><rect class="cls-1" x="29.23" y="42.99" width="43.17" height="63.03"/><ellipse class="cls-2" cx="50.81" cy="43.78" rx="21.58" ry="4.32"/><ellipse class="cls-1" cx="50.81" cy="106.64" rx="21.58" ry="4.32"/><path class="cls-3" d="M50.81,43.78A7.85,7.85,0,0,1,47,35.26c1-6.19,4.58-6.42,4.92-11.56a4.33,4.33,0,0,0,.49.8A18.07,18.07,0,0,1,53.54,27a28.4,28.4,0,0,1,1.68,9.78A7.53,7.53,0,0,1,50.81,43.78Z"/><path class="cls-4" d="M50.81,43.78s-3.7-1.47-3.07-5.35a8.06,8.06,0,0,1,1.15-3.09,23.83,23.83,0,0,0,1.39-2.1,4.93,4.93,0,0,0,.35-.89,5.23,5.23,0,0,0,.12-.53c0-.2,0-.41.08-.6.1.06.2.29.27.41s.18.32.27.48a11.48,11.48,0,0,1,.49,1.15,17.83,17.83,0,0,1,1.06,6.14C52.9,41.71,52.24,43.08,50.81,43.78Z"/><rect class="cls-5" y="73.69" width="43.17" height="44.99"/><ellipse class="cls-2" cx="21.58" cy="73.81" rx="21.58" ry="3.08"/><ellipse class="cls-5" cx="21.58" cy="118.67" rx="21.58" ry="3.08"/><path class="cls-3" d="M21.58,73.81s-4.83-1.67-3.83-6.08,4.58-4.58,4.92-8.25c0,.09.43.5.49.57a11.58,11.58,0,0,1,1.15,1.81,15.18,15.18,0,0,1,1.68,7C26,71.45,23.86,73,21.58,73.81Z"/><path class="cls-4" d="M21.58,73.81s-3.7-1-3.07-3.82a4.89,4.89,0,0,1,1.15-2.2,17.86,17.86,0,0,0,1.39-1.5,3,3,0,0,0,.35-.64,2.85,2.85,0,0,0,.12-.37c0-.14,0-.29.08-.43.1,0,.2.21.27.29l.27.34a7.21,7.21,0,0,1,.49.82,9.53,9.53,0,0,1,1.06,4.38A3,3,0,0,1,21.58,73.81Z"/><path class="cls-6" d="M94,91.22s-45.3,1.35-40.72,22.38,77.93,8.9,80.09,0S113.65,86.64,94,91.22Z"/><path class="cls-7" d="M102.13,94.24a5.32,5.32,0,0,0-1.9-.58,69.86,69.86,0,0,0-17.68-.59A35.26,35.26,0,0,0,71,95.81a17.36,17.36,0,0,0-8.55,8,4.25,4.25,0,0,0-.48,1.62,3.41,3.41,0,0,0,.56,1.89,7.13,7.13,0,0,0,5.47,3,22.39,22.39,0,0,0,6.42-.65c7.9-1.54,17.08-2.42,24.09-6.71a10.11,10.11,0,0,0,4.42-5,3.28,3.28,0,0,0-.31-3.27A2.26,2.26,0,0,0,102.13,94.24Z"/><path class="cls-6" d="M93.86,74S54.3,75.22,58.31,93.59s68.06,7.77,69.94,0S111.06,70,93.86,74Z"/><path class="cls-7" d="M99.66,78.68a4.65,4.65,0,0,0-1.66-.5,61,61,0,0,0-15.44-.52,30.79,30.79,0,0,0-10.08,2.4A15.16,15.16,0,0,0,65,87a3.72,3.72,0,0,0-.42,1.41,3,3,0,0,0,.49,1.65,6.23,6.23,0,0,0,4.77,2.65,19.55,19.55,0,0,0,5.61-.56c6.9-1.34,14.92-2.12,21-5.86a8.83,8.83,0,0,0,3.86-4.4A2.86,2.86,0,0,0,100.1,79,2,2,0,0,0,99.66,78.68Z"/><path class="cls-6" d="M93.78,59.2S59,60.23,62.48,76.41s59.92,6.84,61.58,0S108.92,55.67,93.78,59.2Z"/><path class="cls-7" d="M98.88,63.28a4.09,4.09,0,0,0-1.46-.44,53.72,53.72,0,0,0-13.59-.46A27.11,27.11,0,0,0,75,64.49a13.35,13.35,0,0,0-6.57,6.12A3.27,3.27,0,0,0,68,71.86a2.62,2.62,0,0,0,.43,1.46,5.48,5.48,0,0,0,4.2,2.33,17.22,17.22,0,0,0,4.94-.5C83.66,74,90.72,73.28,96.11,70a7.77,7.77,0,0,0,3.4-3.87,2.52,2.52,0,0,0-.24-2.52A1.74,1.74,0,0,0,98.88,63.28Z"/><path class="cls-6" d="M93.67,46.17S65.67,47,68.5,60s48.17,5.5,49.5,0S105.84,43.34,93.67,46.17Z"/><path class="cls-7" d="M97.77,49.46a3.29,3.29,0,0,0-1.17-.36,43.18,43.18,0,0,0-10.93-.37,21.79,21.79,0,0,0-7.13,1.7,10.73,10.73,0,0,0-5.29,4.92,2.63,2.63,0,0,0-.3,1,2.11,2.11,0,0,0,.35,1.17,4.41,4.41,0,0,0,3.38,1.87,13.84,13.84,0,0,0,4-.4c4.88-1,10.56-1.5,14.89-4.15a6.25,6.25,0,0,0,2.73-3.11,2,2,0,0,0-.19-2A1.4,1.4,0,0,0,97.77,49.46Z"/><rect class="cls-8" x="135.01" y="44.39" width="33.91" height="14.51" transform="translate(204.3 -100.09) rotate(90.26)"/><rect class="cls-9" x="147.64" y="0.02" width="8.67" height="60.66" rx="3.59" ry="3.59" transform="translate(183.01 -121.48) rotate(90.26)"/><rect class="cls-9" x="147.46" y="-3.15" width="8.67" height="49.67" rx="3.59" ry="3.59" transform="translate(174.17 -130.01) rotate(90.26)"/><rect class="cls-9" x="147.39" y="-5.82" width="8.67" height="37.69" rx="3.59" ry="3.59" transform="translate(165.43 -138.64) rotate(90.26)"/><path class="cls-8" d="M151-4.18H156a0,0,0,0,1,0,0V12.89a0,0,0,0,1,0,0H151a3.59,3.59,0,0,1-3.59-3.59V-.59A3.59,3.59,0,0,1,151-4.18Z" transform="translate(156.75 -147.33) rotate(90.26)"/><path class="cls-10" d="M150.29,2.59h0a3.53,3.53,0,0,1,3.53,3.53v53.6a3.53,3.53,0,0,1-3.53,3.53h0a0,0,0,0,1,0,0V2.59A0,0,0,0,1,150.29,2.59Z" transform="translate(185.66 -118.98) rotate(90.26)"/><path class="cls-10" d="M150-.58h0a3.53,3.53,0,0,1,3.53,3.53V45.56A3.53,3.53,0,0,1,150,49.09h0a0,0,0,0,1,0,0V-.58A0,0,0,0,1,150-.58Z" transform="matrix(0, 1, -1, 0, 176.73, -127.42)"/><path class="cls-10" d="M149.95-3.25h0A3.53,3.53,0,0,1,153.48.28V30.9a3.53,3.53,0,0,1-3.53,3.53h0a0,0,0,0,1,0,0V-3.25A0,0,0,0,1,149.95-3.25Z" transform="translate(167.99 -136.05) rotate(90.26)"/><rect class="cls-8" x="134.86" y="58.4" width="33.91" height="14.51" transform="translate(85.48 217.17) rotate(-89.74)"/><rect class="cls-9" x="147.29" y="56.61" width="8.67" height="60.66" rx="3.59" ry="3.59" transform="translate(64 238.17) rotate(-89.74)"/><rect class="cls-9" x="147.04" y="70.77" width="8.67" height="49.67" rx="3.59" ry="3.59" transform="translate(55.08 246.54) rotate(-89.74)"/><rect class="cls-9" x="146.89" y="85.43" width="8.67" height="37.69" rx="3.59" ry="3.59" transform="translate(46.27 255.02) rotate(-89.74)"/><path class="cls-8" d="M150.38,104.4h5.08a0,0,0,0,1,0,0v17.06a0,0,0,0,1,0,0h-5.08a3.59,3.59,0,0,1-3.59-3.59V108A3.59,3.59,0,0,1,150.38,104.4Z" transform="translate(37.51 263.55) rotate(-89.74)"/><path class="cls-10" d="M150,54h0a3.53,3.53,0,0,1,3.53,3.53v53.6A3.53,3.53,0,0,1,150,114.7h0a0,0,0,0,1,0,0V54a0,0,0,0,1,0,0Z" transform="translate(66.67 235.72) rotate(-89.74)"/><path class="cls-10" d="M149.62,68.2h0a3.53,3.53,0,0,1,3.53,3.53v42.61a3.53,3.53,0,0,1-3.53,3.53h0a0,0,0,0,1,0,0V68.2A0,0,0,0,1,149.62,68.2Z" transform="matrix(0, -1, 1, 0, 57.66, 244)"/><path class="cls-10" d="M149.47,82.86h0A3.53,3.53,0,0,1,153,86.39V117a3.53,3.53,0,0,1-3.53,3.53h0a0,0,0,0,1,0,0V82.86A0,0,0,0,1,149.47,82.86Z" transform="translate(48.85 252.47) rotate(-89.74)"/></g></g></svg>