<svg xmlns="http://www.w3.org/2000/svg" viewBox="0 0 242.78 103.8"><defs><style>.cls-1{fill:#73b5e5;}.cls-2{fill:#a3c7e2;}.cls-3{fill:#353533;}.cls-4{fill:#ffcc9a;}.cls-5{fill:#f4b476;}.cls-6{fill:#6b6e67;}.cls-7{fill:#c4e0e3;}.cls-8{fill:#eeb77e;}.cls-9{fill:none;stroke:#ddae85;stroke-miterlimit:10;stroke-width:0.1px;}</style></defs><title>swimming</title><g id="Layer_2" data-name="Layer 2"><g id="Layer_1-2" data-name="Layer 1"><ellipse class="cls-1" cx="113.9" cy="78.31" rx="113.9" ry="25.49"/><ellipse class="cls-2" cx="116.05" cy="77.75" rx="95.93" ry="21.47"/><ellipse class="cls-1" cx="116.05" cy="78.31" rx="70.72" ry="14.31"/><path class="cls-3" d="M157.65,44s6.08-10.6,16.11-9.35c0,0,17.37,4.48,16.47,17.55s0,.36,0,.36,1.41,7-8.36,14.23-5-8.09-5-8.09L171.07,49l-2.8-2.33-5.91,3.58-6.62,2.92,1.68-8.88"/><path class="cls-4" d="M66.54,78.89S98.09,59.09,100.39,60c0,0,43-60.25,58.23-60,0,0,50.09,2,68,16.35,0,0,16.95,17.25,16.14,29.09l-1.39.58s.46,2.79-1.28,1.74c0,0-.35-4.29-1.51-4.29,0,0,0,6.61-1.74,4.41,0,0-4.65-12.54-9.17-13a6.17,6.17,0,0,0,1.39,4.06s3.71,4.41.81,4.87c0,0-7.31-9.4-8.71-10.79,0,0-3.36-7.2-2.78-10.45,0,0-12.72-1.24-27.75-1.39h-.7c-15.32-.12-23.8-.7-23.8-.7s-7.66,16.25-16.37,20S145.81,42,145.81,42s.69,7.78-5.34,10.33c0,0-2,4.18-1.05,4.41S151.5,55.42,153.59,51a41.76,41.76,0,0,1,3.83-6.73s5.8-2.79.34,7.31c0,0,8.94-9.63,14.52-6.61,0,0,16,6.15,12.3,17.53l-1.93,3.11-.74,1.18S167.79,76.47,162.45,76l.31,5s-40.17,11.26-71.29,5.34C91.47,86.31,67.38,85.05,66.54,78.89Z"/><path class="cls-5" d="M108.71,64.16s13.27-3.35,14.68-7.47c0,0-8.89,7.47-9.92,19.32C113.47,76,111.54,63.77,108.71,64.16Z"/><path class="cls-6" d="M172.26,59.19a2.47,2.47,0,0,1,.55.18c.88-1.41.53-3.71-1-5.6-1.77-2.22-4.45-3-6-1.78s-1.35,4,.42,6.24,4.45,3,6,1.78a2.09,2.09,0,0,0,.22-.2,1.06,1.06,0,0,0-.35-.09C171,59.69,172.26,59.19,172.26,59.19Zm-5.51-1.37c-1.47-1.84-1.62-4.17-.34-5.19s3.52-.36,5,1.48,1.63,4.18.34,5.2S168.23,59.67,166.75,57.82Z"/><path class="cls-6" d="M179.51,63.4c-1.52-1.92-3.72-2.77-5.29-2.18a3.43,3.43,0,0,1,0,.47l-.35.29s-.07-.22-.19-.51l-.2.14c-1.54,1.23-1.36,4,.41,6.24s4.45,3,6,1.79S181.28,65.61,179.51,63.4Zm-5.07,4.05c-1.48-1.85-1.63-4.17-.35-5.2s3.52-.36,5,1.49,1.63,4.17.35,5.19S175.91,69.29,174.44,67.45Z"/><ellipse class="cls-7" cx="169.08" cy="55.97" rx="2.97" ry="4.27" transform="translate(2.02 117.72) rotate(-38.6)"/><ellipse class="cls-7" cx="176.76" cy="65.59" rx="2.97" ry="4.27" transform="translate(-2.3 124.61) rotate(-38.6)"/><path class="cls-6" d="M174.26,61.69a3.43,3.43,0,0,0,0-.47,2.34,2.34,0,0,0-1.41-1.85,2.47,2.47,0,0,0-.55-.18s-1.28.5-.15.53a1.06,1.06,0,0,1,.35.09,3.21,3.21,0,0,1,1.26,1.66c.12.29.19.51.19.51Z"/><path class="cls-8" d="M154.66,50.25S142.87,78.52,162.45,76v1.66S139.6,80.53,153.59,51"/><path class="cls-4" d="M242.75,45.44s-.43,1.14-1.39.58"/><path class="cls-9" d="M238.57,39.1s2.86,5.28,2.79,7.07"/><path class="cls-9" d="M236.54,39.84a28.2,28.2,0,0,1,2,3.63"/></g></g></svg>