<svg xmlns="http://www.w3.org/2000/svg" viewBox="0 0 502.69 152.22"><defs><style>.cls-1{fill:#dea426;}.cls-2{fill:#573341;}.cls-3{fill:#a36556;}.cls-4{fill:#ffcf55;}.cls-5{fill:#7bdac6;}.cls-6{fill:ivory;}.cls-7{fill:#ffec96;}.cls-8{fill:#e6b63a;}.cls-9{fill:#e8e0de;}.cls-10,.cls-16{fill:none;stroke:#e6b63a;stroke-miterlimit:10;}.cls-10{stroke-width:2px;}.cls-11{fill:#93b6bc;}.cls-12{fill:#b47758;}.cls-13{fill:#b67559;}.cls-14{fill:#b0e3c0;}.cls-15{fill:#74c4c5;}.cls-17{fill:#bbbdbc;}</style></defs><title>taxi</title><g id="Layer_2" data-name="Layer 2"><g id="Layer_1-2" data-name="Layer 1"><path class="cls-1" d="M442.48,78.69s12.75,18.6,15.16,30.63l5.95-5.51L452.12,84.33Z"/><circle class="cls-2" cx="127.38" cy="106.93" r="45.29"/><path class="cls-3" d="M127.38,27.35s21.55-18.84,30.25,7.28S127.38,27.35,127.38,27.35Z"/><path class="cls-4" d="M84.07,86,71.43,109.16l-26.21,2.31s-25.77-3.19-26.29-3.19-13.17-.94-13.17-.94l2.43-8.58L31,92.3s19.67-7.55,21.25-7.55,31.78-1.83,31.78-1.83v2.36"/><polygon class="cls-5" points="303.1 0.09 302.85 0.15 299.35 0.93 298.22 1.79 298.56 3.39 301.3 3.39 303.38 1.16 303.1 0.09"/><path class="cls-5" d="M303.1.09l37.7,26.69s-14,18-40.8,7.59V31.48L288.07,15.74,292,5.94Z"/><circle class="cls-6" cx="127.38" cy="106.93" r="28.84"/><path class="cls-5" d="M342.29,27.54s-54-30.36-55.52-12c0,0,8.8,21.51,21.18,20.72C308,36.25,323.57,38.73,342.29,27.54Z"/><path class="cls-4" d="M6.67,103.81l93-23.66L141,75.23l26.48,9.19S181,110.7,182,117.15s77,1.28,77,1.28l92.83-3.63,5.56-23.53,23.32-30.38,28.66-3.2,19,3.85,15.83,15.18,8.13,11s4.7,19.79,9.2,20,20.1-1.5,20.1-1.5l15.62-6.63,4.55-3.31-3.18-15.78L484.26,63.06l-15-8-27.78-9.1-50.06-8.56L343.72,31l-14.33,4.28L289,38.17l-66.07,1.91L172.6,38.17S129.39,32.6,127.9,31,90,35.44,90,35.44l-50.69,22L12.82,83.57,8.54,96l-1.93,15.5,62-1.81"/><path class="cls-3" d="M223.94,22s5.79,14,5.47,18.12H216.59l-3.81-9.81,2.4-8.31H222"/><path class="cls-7" d="M7.21,103.8S.62,40.19,127.46,27.39c0,0,34.92,18.62,172.63,7,0,0,19,8.14,41.89-7,0,0,19.78,7.75,35.69,7,0,0,108.21,3.52,121.79,48.52,0,0-14.73-33.39-76-36.5,0,0-77.58-6.59-79.52-12.8,0,0-51.59,14.35-117.93,10.48,0,0-81.46-3.5-96.2-10.87C129.79,33.2,32,35.53,7.21,103.8Z"/><rect class="cls-8" x="202.22" y="52.22" width="21.13" height="6.41" rx="3.21" ry="3.21"/><rect class="cls-9" x="199.96" y="50.71" width="21.13" height="6.41" rx="3.21" ry="3.21"/><path class="cls-10" d="M62.46,86s2.8-27,115.6-25.17l153.83-3.74s16.54,4.11,36-17.05"/><path class="cls-1" d="M56.87,103.81H71.32c.07,0,2.62-6.89,2.84-7.32a49.15,49.15,0,0,1,11.44-15A52.71,52.71,0,0,1,110,69.67a98.34,98.34,0,0,1,18.93-1.56c8.82-.08,18,.11,26.25,3.6a39.06,39.06,0,0,1,18,15.91c4.17,7,6.31,15.07,7.28,23.13H343.08s8.85,3.73,11.18-14.92c0,0,7-47.35,51.74-45.12.48,0,1,.12,1.43.19,1.3.2,2.59.44,3.88.71q2.88.6,5.71,1.4,3.51,1,6.93,2.29a71,71,0,0,1,7.5,3.37,56.31,56.31,0,0,1,7.47,4.63,45.54,45.54,0,0,1,6.79,6.08,38.88,38.88,0,0,1,5.51,7.72,38.3,38.3,0,0,1,3.59,9.54,36.83,36.83,0,0,1,1,8.23,8.32,8.32,0,0,0,.2,2.39,8.57,8.57,0,0,0,3.41,4.07,13.94,13.94,0,0,0,4.91,2.07,33.65,33.65,0,0,0,8.09.48,57.65,57.65,0,0,0,12.1-1.33A23.09,23.09,0,0,0,495.19,97,14.47,14.47,0,0,0,499.75,86c1.93,5.82,3.45,11.94,2.78,18a13.14,13.14,0,0,1-1.83,5.81,3.16,3.16,0,0,1-.95,1,4.3,4.3,0,0,1-1.41.49A158,158,0,0,1,473.7,115a35.73,35.73,0,0,1-11-.8,7,7,0,0,1-3.86-2.18,7.12,7.12,0,0,1-1.18-2.82c-1.26-5.38-1-11-3.54-16a39,39,0,0,0-4.62-7.28A64,64,0,0,0,441,77.43a127.11,127.11,0,0,0-12.2-9.1s-56.4-22.84-73.18,39.15c0,0,4.66,21-21.44,16.79L186,124.82s-4.2.38-7-10.81c0,0-1.87-29.83-34-32.16,0,0-56.87-13.06-70.39,34L48,116.34l-2.79-12.53Z"/><rect class="cls-11" y="103.81" width="56.87" height="15.33" rx="5.67" ry="5.67"/><path class="cls-12" d="M127.38,27.39S145,10.75,155.51,30.27c0,0-12.1-16-22.57-.77Z"/><path class="cls-13" d="M211.68,38.17s-8.79-23.63,11.67-16.42c.59.21-11.7-.84-5.85,16.42Z"/><path class="cls-14" d="M327.27,26.05s-3.8,4.21-5.82,3.23L294.35,6.15s3-4.53,5-4.06S327.27,26.05,327.27,26.05Z"/><path class="cls-15" d="M303.1.09s-15-2.35-16.33,16.55c0,0,9.38,19.21,20.11,19.46s1.07.15,1.07.15-31-20.43-8.6-34.16A39.18,39.18,0,0,1,303.1.09Z"/><path class="cls-16" d="M186.66,41.67s-1.62-.55-1.88,15.46,0,42.35,0,42.35,1.06,10.11,12,9.58,125.34,0,125.34,0,9.31-2.15,9.31-11.73V49.18s-2-11.66-7.18-11"/><circle class="cls-17" cx="126.62" cy="107.34" r="16.51"/><circle class="cls-2" cx="406.83" cy="106.93" r="45.29"/><circle class="cls-6" cx="406.83" cy="106.93" r="28.84"/><circle class="cls-17" cx="406.08" cy="107.34" r="16.51"/><path class="cls-1" d="M453.8,91.12s3.08,9.58,3.12,10S454.57,98,454.57,98L453,93.17l.45-2"/></g></g></svg>