<svg xmlns="http://www.w3.org/2000/svg" viewBox="0 0 525 154.29"><defs><style>.cls-1,.cls-2{fill:none;stroke:#ef5d60;stroke-miterlimit:10;}.cls-1{stroke-width:5px;}.cls-2{stroke-width:3px;}</style></defs><title>travel</title><g id="Layer_2" data-name="Layer 2"><g id="Layer_1-2" data-name="Layer 1"><path class="cls-1" d="M8,104.43s-5.33-43.33,40.67-55c0,0,103.33-11,119.33-20.67,0,0,89,28.33,214.67,1.33,3.87-.83,8.47-.31,12.36-.07a137.12,137.12,0,0,1,32.55,6.25c18.1,5.69,34.29,14.81,50,25.29a76.52,76.52,0,0,1,11.29,8.79,47.41,47.41,0,0,1,13.23,24.88c.14.77,1,9.21.25,9.21H424.09a43,43,0,0,0-85.36,0H143.24a42.25,42.25,0,0,0-42-37.83c-21.84,0-42.67,16.58-44.88,37.83H8"/><circle class="cls-1" cx="381.2" cy="113.72" r="38.07"/><circle class="cls-1" cx="100.56" cy="113.28" r="37.63"/><path class="cls-1" d="M168,28.77l37.36-25a7.78,7.78,0,0,1,9.82,1l2.61,2.61a11.86,11.86,0,0,1-.16,16.93L204.83,36.63"/><path class="cls-1" d="M430.92,104.43H522.5a0,0,0,0,1,0,0V118.1a0,0,0,0,1,0,0H430.92a6.83,6.83,0,0,1-6.83-6.83v0A6.83,6.83,0,0,1,430.92,104.43Z" transform="translate(946.59 222.53) rotate(180)"/><polyline class="cls-1" points="0 116.43 56.33 116.43 56.33 104.43 0 104.43"/><path class="cls-1" d="M316.26,40.52s3,49.75-1.74,63.92"/><path class="cls-1" d="M219.82,40.52s6.48,52.5,0,63.92"/><circle class="cls-1" cx="100.56" cy="113.28" r="23"/><circle class="cls-1" cx="381.2" cy="113.28" r="23"/><ellipse class="cls-2" cx="31.66" cy="76.63" rx="11.75" ry="7.75" transform="translate(-48.77 56.51) rotate(-53.51)"/></g></g></svg>