<svg xmlns="http://www.w3.org/2000/svg" viewBox="0 0 884 633.58"><defs><style>.cls-1{fill:none;stroke:#444;stroke-miterlimit:10;stroke-width:23px;}.cls-2{fill:#a04e32;}.cls-3{fill:#8e412d;}.cls-4{fill:#af5941;}.cls-5{fill:#eacb32;}.cls-6{fill:#fff;}.cls-7{fill:#eaeaea;}</style></defs><title>Asset 20</title><g id="Layer_2" data-name="Layer 2"><g id="Layer_1-2" data-name="Layer 1"><rect class="cls-1" x="340.12" y="11.5" width="172.49" height="184.49" rx="31.54" ry="31.54"/><rect class="cls-2" y="97.58" width="884" height="536" rx="33.47" ry="33.47"/><path class="cls-3" d="M0,131v85.1a105,105,0,0,0,105-105,106,106,0,0,0-.87-13.58H33.47A33.47,33.47,0,0,0,0,131Z"/><path class="cls-3" d="M884,131v85.1A105.06,105.06,0,0,1,779.88,97.58h70.65A33.47,33.47,0,0,1,884,131Z"/><path class="cls-3" d="M884,600.11V515A105.06,105.06,0,0,0,779.88,633.58h70.65A33.47,33.47,0,0,0,884,600.11Z"/><path class="cls-3" d="M0,600.11V515A105,105,0,0,1,105,620a106,106,0,0,1-.87,13.58H33.47A33.47,33.47,0,0,1,0,600.11Z"/><rect class="cls-4" x="616.97" y="97.58" width="39" height="536"/><rect class="cls-4" x="208.93" y="97.58" width="39" height="536"/><circle class="cls-5" cx="846.74" cy="584.47" r="15.24"/><circle class="cls-5" cx="846.74" cy="141.63" r="15.24"/><circle class="cls-5" cx="52.5" cy="584.47" r="15.24"/><circle class="cls-5" cx="52.5" cy="141.63" r="15.24"/><rect class="cls-6" x="522.11" y="177.13" width="158" height="101.73" rx="2.62" ry="2.62" transform="translate(-0.53 1.39) rotate(-0.13)"/><rect class="cls-7" x="573.15" y="186.58" width="59.88" height="9.26" transform="translate(-0.44 1.4) rotate(-0.13)"/><rect class="cls-7" x="531.93" y="186.71" width="33.04" height="37.73" transform="translate(-0.47 1.27) rotate(-0.13)"/><rect class="cls-7" x="573.19" y="202.18" width="47.67" height="9.26" transform="translate(-0.48 1.38) rotate(-0.13)"/><rect class="cls-7" x="573.22" y="215.08" width="33.46" height="9.26" transform="translate(-0.51 1.37) rotate(-0.13)"/></g></g></svg>