<svg xmlns="http://www.w3.org/2000/svg" viewBox="0 0 533.5 154.29"><defs><style>.cls-1,.cls-2{fill:none;stroke:#8e412d;stroke-miterlimit:10;}.cls-1{stroke-width:5px;}.cls-2{stroke-width:3px;}</style></defs><title>Asset 27</title><g id="Layer_2" data-name="Layer 2"><g id="Layer_1-2" data-name="Layer 1"><path class="cls-1" d="M57.17,49.43s103.33-11,119.33-20.67c0,0,89,28.33,214.67,1.33,3.87-.83,8.47-.31,12.36-.07a137.12,137.12,0,0,1,32.55,6.25c18.1,5.69,34.29,14.81,50,25.29a76.52,76.52,0,0,1,11.29,8.79,47.41,47.41,0,0,1,13.23,24.88c.14.77,1,9.21.25,9.21H432.59a43,43,0,0,0-85.36,0H151.74a42.25,42.25,0,0,0-42-37.83C87.87,66.6,67,83.17,64.83,104.43H16.5S11.17,61.1,57.17,49.43Z"/><circle class="cls-1" cx="389.7" cy="113.72" r="38.07"/><circle class="cls-1" cx="109.06" cy="113.28" r="37.63"/><path class="cls-1" d="M176.5,28.77l37.36-25a7.78,7.78,0,0,1,9.82,1l2.61,2.61a11.86,11.86,0,0,1-.16,16.93L213.33,36.63"/><path class="cls-1" d="M439.42,104.43H531a0,0,0,0,1,0,0V118.1a0,0,0,0,1,0,0H439.42a6.83,6.83,0,0,1-6.83-6.83v0A6.83,6.83,0,0,1,439.42,104.43Z" transform="translate(963.59 222.53) rotate(180)"/><path class="cls-1" d="M2.5,104.43H58.83a6,6,0,0,1,6,6v0a6,6,0,0,1-6,6H2.5a0,0,0,0,1,0,0v-12A0,0,0,0,1,2.5,104.43Z" transform="translate(67.33 220.87) rotate(-180)"/><path class="cls-1" d="M324.76,40.52s3,49.75-1.74,63.92"/><path class="cls-1" d="M228.32,40.52s6.48,52.5,0,63.92"/><circle class="cls-1" cx="109.06" cy="113.28" r="23"/><circle class="cls-1" cx="389.7" cy="113.28" r="23"/><ellipse class="cls-2" cx="40.16" cy="76.63" rx="11.75" ry="7.75" transform="translate(-45.33 63.34) rotate(-53.51)"/></g></g></svg>