<svg xmlns="http://www.w3.org/2000/svg" viewBox="0 0 469.48 505.83"><defs><style>.cls-1,.cls-6{fill:#353535;}.cls-1,.cls-2{stroke:#828385;stroke-linecap:round;stroke-miterlimit:10;}.cls-1{stroke-width:19px;}.cls-2{fill:none;stroke-width:10px;}.cls-3{fill:#828385;}.cls-4{fill:#fe5955;}.cls-5{fill:#fff;}.cls-7{fill:#545454;}</style></defs><title>Asset 19</title><g id="Layer_2" data-name="Layer 2"><g id="Layer_1-2" data-name="Layer 1"><line class="cls-1" x1="192.26" y1="437.33" x2="115.26" y2="496.33"/><line class="cls-1" x1="298.26" y1="496.33" x2="224.26" y2="437.33"/><path class="cls-2" d="M299.59,5,240,100.65c-1.52-1.52-67.4-56.32-67.4-56.32"/><circle class="cls-3" cx="239.99" cy="136.65" r="75"/><rect class="cls-4" y="100.65" width="469.48" height="353.98" rx="52.23" ry="52.23"/><circle class="cls-5" cx="408.91" cy="199.49" r="12.16"/><circle class="cls-5" cx="408.91" cy="239.2" r="12.16"/><circle class="cls-5" cx="408.91" cy="279.03" r="12.16"/><rect class="cls-6" x="383.39" y="319.63" width="51.04" height="6.15" rx="3.08" ry="3.08"/><rect class="cls-6" x="383.39" y="331.21" width="51.04" height="5.5" rx="2.75" ry="2.75"/><rect class="cls-6" x="383.39" y="342.14" width="51.04" height="6.15" rx="3.08" ry="3.08"/><rect class="cls-6" x="383.39" y="353.72" width="51.04" height="5.5" rx="2.75" ry="2.75"/><path class="cls-7" d="M313.32,411.56H71.2a35.32,35.32,0,0,1-35.32-35.32V179c4.45-19.58,15.81-35.32,35.32-35.32H313.32c19.51,0,32.29,15.18,35.32,35.32v197.2A35.32,35.32,0,0,1,313.32,411.56Z"/></g></g></svg>