<svg xmlns="http://www.w3.org/2000/svg" viewBox="0 0 475.48 483.5"><defs><style>.cls-1{fill:#ef5d60;}.cls-2{fill:none;stroke:#ef5d60;stroke-miterlimit:10;stroke-width:6px;}</style></defs><title>tv_1</title><g id="Layer_2" data-name="Layer 2"><g id="Layer_1-2" data-name="Layer 1"><rect class="cls-1" x="240.18" y="447.46" width="73.94" height="13.95" rx="6.97" ry="6.97" transform="translate(352.04 -72.55) rotate(39.47)"/><rect class="cls-2" x="3" y="75.04" width="469.48" height="353.98" rx="52.23" ry="52.23"/><circle class="cls-2" cx="411.91" cy="173.88" r="12.16"/><circle class="cls-2" cx="411.91" cy="213.59" r="12.16"/><circle class="cls-2" cx="411.91" cy="253.42" r="12.16"/><path class="cls-2" d="M316.32,385.95H74.2a35.32,35.32,0,0,1-35.32-35.32V153.43c4.45-19.58,15.81-35.32,35.32-35.32H316.32c19.51,0,32.29,15.18,35.32,35.32v197.2A35.32,35.32,0,0,1,316.32,385.95Z"/><path class="cls-2" d="M177.18,75c15.08-29.89,52.94-43.16,84.5-35.5,19.45,4.72,38.21,17.3,47.17,35.47"/><rect class="cls-2" x="181.61" y="32.52" width="33.36" height="3.59" rx="1.79" ry="1.79" transform="translate(67.02 -118.22) rotate(39.47)"/><rect class="cls-2" x="262.27" y="21.45" width="64.9" height="4.48" rx="2.24" ry="2.24" transform="translate(46.89 184.94) rotate(-37.65)"/><polyline class="cls-2" points="251.56 438.75 241.16 429.02 251.56 429.02"/><path class="cls-1" d="M115,470.78l52-41.5c3-2.39,7.11-2.27,9.13.26l1.29,1.62c2,2.54,1.23,6.57-2.79,9.94l-52,41.5a6.48,6.48,0,0,1-8.12-1.24l-1.29-1.62C111.24,477.2,112,473.17,115,470.78Z"/><polyline class="cls-2" points="173.09 438.75 181.84 429.93 175.54 429.93"/></g></g></svg>