<svg id="Layer_1" data-name="Layer 1" xmlns="http://www.w3.org/2000/svg" viewBox="0 0 24.99 25" fill="#9393a4"><title>twitter-footer-icon</title><path d="M12.49 0a12.5 12.5 0 1 0 12.49 12.5A12.5 12.5 0 0 0 12.49 0zm5 10.55v.33a7.3 7.3 0 0 1-11.24 6.15 5.1 5.1 0 0 0 .61 0 5.15 5.15 0 0 0 3.19-1.1 2.57 2.57 0 0 1-2.4-1.78 2.57 2.57 0 0 0 1.16 0 2.57 2.57 0 0 1-2.06-2.52 2.57 2.57 0 0 0 1.16.32 2.57 2.57 0 0 1-.79-3.43 7.29 7.29 0 0 0 5.29 2.69 2.57 2.57 0 0 1 4.38-2.34 5.12 5.12 0 0 0 1.63-.62 2.57 2.57 0 0 1-1.1 1.38 5.16 5.16 0 0 0 1.47-.4 5.19 5.19 0 0 1-1.31 1.32z"/></svg>