<svg xmlns="http://www.w3.org/2000/svg" viewBox="0 0 100.66 73.44"><defs><style>.cls-1{fill:#ea3d3d;}.cls-2{fill:#d87e5c;}.cls-3{fill:#ffcd9c;}.cls-4{fill:#ffc059;}.cls-11,.cls-5{fill:none;}.cls-5{stroke:#fff;stroke-width:0.3px;}.cls-24,.cls-5{stroke-miterlimit:10;}.cls-6{fill:#f66;}.cls-24,.cls-7{fill:#f4cf8b;}.cls-8{fill:#f9e3b4;}.cls-9{fill:#f6d79e;}.cls-10{fill:#fae3b9;}.cls-12{fill:#7f3f33;}.cls-13{fill:#75352c;}.cls-14{fill:#9a433a;}.cls-15{fill:#6a271f;}.cls-16{fill:#e8bb74;}.cls-17{fill:#fae4bb;}.cls-18{fill:#55241f;}.cls-19{fill:#dbb372;}.cls-20{fill:#edc283;}.cls-21{fill:#f7dfaf;}.cls-22{fill:#e2bb7d;}.cls-23{fill:#b14b3f;}.cls-24{stroke:#dbba83;}.cls-25{fill:#ccaa75;}</style></defs><title>work load</title><g id="Layer_2" data-name="Layer 2"><g id="Layer_1-2" data-name="Layer 1"><polygon class="cls-1" points="45.44 8.78 46.41 9.98 50.44 11.04 51.26 11.35 51.79 11.27 50.79 10.34 45.44 8.78"/><path class="cls-2" d="M38.5,24.22s1.36,4,0,4,7.74-.51,7.74-.51l-1.78-3.45Z"/><path class="cls-2" d="M11.68,22s4.06,16.38,22.41,12.71,0-1.31,0-1.31S19,35.14,11.68,22Z"/><path class="cls-3" d="M33.24,20.06s3.65,5.73,10.37,4.67c0,0,6.2,1.6,0-13.67C43.61,11.06,31,0,33.24,20.06Z"/><path class="cls-4" d="M11.68,22l1.71-1.57s11.13,14,23.71,6.15c0,0,5.5,3,10-1.17,0,0,14.93,5.57,17.68,3.57L70,22l2.62,1.57S69.2,41,54.26,34.22V44.1H34.1c0-.84,0-8.55,0-9.39a29.26,29.26,0,0,1-14.36-3.62C16.88,29.47,11.68,25.75,11.68,22Z"/><path class="cls-2" d="M54.26,34.22l.43-.9s7.9,5.13,15.52-3.6C70.21,29.72,65.44,39.4,54.26,34.22Z"/><circle class="cls-5" cx="49.6" cy="33.62" r="1.25"/><path class="cls-1" d="M45.55,8.82l1.07-.77a22.79,22.79,0,0,0-6.78-.61l1.24-1.32a14.14,14.14,0,0,0-4.52.72l-.15,0a.42.42,0,0,1-.17.1A14.39,14.39,0,0,0,33.91,8.2a4.27,4.27,0,0,0-1.08.86,4.64,4.64,0,0,0-.52,1.13,14.56,14.56,0,0,0-.64,1.66A21,21,0,0,0,31,15.3L27.84,15a12.34,12.34,0,0,0,5.1,4.64l.54-.1a2.94,2.94,0,0,0,2.11-1.79c.43-.86.67-1.82,1.17-2.64a6.06,6.06,0,0,1,3.3-2.41A18.71,18.71,0,0,1,44.15,12l6-.55L51,11.4c.59-.06.62-.19,1.21-.25C49.77,10.35,47.94,9.62,45.55,8.82Z"/><path class="cls-6" d="M41.12,6.08a13.79,13.79,0,0,0-4.52.72c-.09,0-.15,0-.16,0a.48.48,0,0,1-.17.1A12.89,12.89,0,0,0,34,8.16,4.31,4.31,0,0,0,32.86,9a3,3,0,0,0-.42.88s2.49-2.66,8.17-3.28Z"/><path class="cls-6" d="M46.65,8a22.76,22.76,0,0,0-6.78-.61,62.94,62.94,0,0,1,6.33.93Z"/><path class="cls-6" d="M45.44,8.78s5.29.64,7.18,2.41l-.83.08S50.92,10.4,45.44,8.78Z"/><path class="cls-3" d="M11.71,22.61l-2.12-.82A1.64,1.64,0,0,1,9,21.45a.58.58,0,0,1-.16-.64.56.56,0,0,1,.54-.29,1.72,1.72,0,0,1,.63.16l-.24-1.13a.68.68,0,0,1,0-.56.47.47,0,0,1,.6-.06,1.36,1.36,0,0,1,.41.51,1.62,1.62,0,0,1,0-.62.56.56,0,0,1,.44-.41c.21,0,.42.21.34.41a1.51,1.51,0,0,1,.12-.67.5.5,0,0,1,.56-.27c.29.1.33.49.33.79s.08.69.38.75.54-.27.85-.29a.57.57,0,0,1,.52.48,1.32,1.32,0,0,1-.13.75,4.29,4.29,0,0,1-2.14,2.18"/><path class="cls-3" d="M71.6,23.81,73.72,23a1.79,1.79,0,0,0,.62-.34.52.52,0,0,0-.38-.94,1.74,1.74,0,0,0-.63.17l.24-1.13a.7.7,0,0,0,0-.57.47.47,0,0,0-.6-.05,1.36,1.36,0,0,0-.41.51,1.67,1.67,0,0,0,0-.63.51.51,0,0,0-.43-.4c-.21,0-.42.21-.34.4a1.46,1.46,0,0,0-.12-.66.49.49,0,0,0-.56-.27c-.29.1-.33.48-.33.79s-.08.69-.38.75-.54-.28-.85-.29a.55.55,0,0,0-.52.47,1.31,1.31,0,0,0,.13.75,4.27,4.27,0,0,0,2.14,2.19"/><polygon class="cls-7" points="68.14 30.3 80.62 33.04 80.62 39.68 66.96 39.68 68.14 30.3"/><polygon class="cls-8" points="35.84 31.85 35.84 39.56 25.94 39.56 25.94 32.04 23.39 31.94 23.49 30.86 25.94 30.86 25.94 29.59 35.84 31.16 35.84 31.85"/><polygon class="cls-7" points="9.98 30.86 9.98 33.61 9.11 33.61 9.11 34.89 9.55 34.89 9.98 39.56 25.94 39.56 25.94 32.04 23.39 31.94 23.49 30.86 25.94 30.86 25.94 29.59 7.23 29.59 7.23 30.67 9.98 30.86"/><path class="cls-9" d="M11.18,60.44,0,73.44l12.07-.24S12,60.79,11.18,60.44Z"/><polygon class="cls-7" points="11.41 60.3 0 60.3 0 73.44 12.21 73.44 15.94 64.11 11.41 60.3"/><polygon class="cls-7" points="10.68 49.42 3.05 49.42 3.05 60.3 11.41 60.3 10.68 49.42"/><rect class="cls-10" x="83.61" y="63.65" width="17.04" height="9.79"/><rect class="cls-11" x="9.11" y="39.29" width="72.74" height="1.11"/><polygon class="cls-12" points="78.03 69.61 12.07 69.5 9.98 40.4 80.62 40.4 78.03 69.61"/><path class="cls-13" d="M11.09,54.7s54-13.06,68.29-.86L80.62,40.4H10Z"/><rect class="cls-14" x="12.21" y="69.5" width="1.85" height="3.95"/><rect class="cls-15" x="12.07" y="69.5" width="65.83" height="0.86"/><rect class="cls-14" x="72.97" y="70.36" width="1.97" height="3.08"/><rect class="cls-16" x="87.57" y="65.19" width="6.16" height="0.66"/><rect class="cls-17" x="82.81" y="59.4" width="12" height="3.88"/><polygon class="cls-7" points="82.81 59.4 78.93 59.4 77.91 69.5 77.91 73.44 83.61 73.44 83.61 63.66 82.81 63.28 82.81 59.4"/><rect class="cls-16" x="87.57" y="68.55" width="5.42" height="0.95"/><rect class="cls-16" x="83.61" y="65.52" width="2.1" height="0.9"/><rect class="cls-16" x="87.57" y="71.55" width="5.42" height="0.35"/><rect class="cls-18" x="15.94" y="70.36" width="1.94" height="3.08"/><rect class="cls-16" x="3.05" y="54.7" width="4.18" height="0.83"/><rect class="cls-16" x="0.34" y="72.49" width="5.42" height="0.95"/><rect class="cls-16" x="5.76" y="59.49" width="5.42" height="0.95"/><rect class="cls-19" x="9.98" y="38.61" width="15.96" height="0.95"/><rect class="cls-20" x="25.94" y="38.61" width="9.91" height="0.95"/><rect class="cls-20" x="25.65" y="33.51" width="3.97" height="1.06"/><polygon class="cls-21" points="57.93 32.98 57.93 39.95 66.96 39.68 68.14 30.3 57.93 32.98"/><rect class="cls-22" x="67.76" y="33.3" width="4.26" height="0.64" transform="translate(3.63 -6.69) rotate(5.63)"/><rect class="cls-22" x="67.04" y="39.01" width="13.57" height="0.68"/><rect class="cls-23" x="8.47" y="39.56" width="73.38" height="0.84"/><circle class="cls-24" cx="64.41" cy="7.84" r="7.34"/><polygon class="cls-25" points="64.47 8.09 64.47 4.35 63.73 4.35 63.73 8.09 63.73 8.83 64.47 8.83 67.27 8.83 67.27 8.09 64.47 8.09"/><polygon class="cls-7" points="100.66 63.66 99.49 63.28 82.81 63.28 83.61 63.66 100.66 63.66"/></g></g></svg>